<?xml version="1.0" encoding="UTF-8" standalone="no"?><svg xmlns="http://www.w3.org/2000/svg" xmlns:xlink="http://www.w3.org/1999/xlink" clip-rule="evenodd" stroke-miterlimit="10" viewBox="0 0 1020 84"><desc>SVG generated by Keynote</desc><defs></defs><g transform="matrix(1.00, 0.00, -0.00, -1.00, 0.0, 84.0)"><text xml:space="preserve" font-family="Novecentowide-Normal,Novecento wide" font-size="112.0" fill="#000000" transform="matrix(1.00, 0.00, -0.00, -1.00, -0.3, 2.8)">W</text><text xml:space="preserve" font-family="Novecentowide-Normal,Novecento wide" font-size="112.0" fill="#000000" transform="matrix(1.00, 0.00, -0.00, -1.00, 107.7, 2.8)">h</text><text xml:space="preserve" font-family="Novecentowide-Normal,Novecento wide" font-size="112.0" fill="#000000" transform="matrix(1.00, 0.00, -0.00, -1.00, 188.6, 2.8)">y</text><text xml:space="preserve" font-family="Novecentowide-Normal,Novecento wide" font-size="112.0" fill="#000000" transform="matrix(1.00, 0.00, -0.00, -1.00, 262.1, 2.8)"> </text><text xml:space="preserve" font-family="Novecentowide-Normal,Novecento wide" font-size="112.0" fill="#000000" transform="matrix(1.00, 0.00, -0.00, -1.00, 290.1, 2.8)">y</text><text xml:space="preserve" font-family="Novecentowide-Normal,Novecento wide" font-size="112.0" fill="#000000" transform="matrix(1.00, 0.00, -0.00, -1.00, 355.7, 2.8)">o</text><text xml:space="preserve" font-family="Novecentowide-Normal,Novecento wide" font-size="112.0" fill="#000000" transform="matrix(1.00, 0.00, -0.00, -1.00, 446.9, 2.8)">u</text><text xml:space="preserve" font-family="Novecentowide-Normal,Novecento wide" font-size="112.0" fill="#000000" transform="matrix(1.00, 0.00, -0.00, -1.00, 527.9, 2.8)">’</text><text xml:space="preserve" font-family="Novecentowide-Normal,Novecento wide" font-size="112.0" fill="#000000" transform="matrix(1.00, 0.00, -0.00, -1.00, 561.5, 2.8)">r</text><text xml:space="preserve" font-family="Novecentowide-Normal,Novecento wide" font-size="112.0" fill="#000000" transform="matrix(1.00, 0.00, -0.00, -1.00, 632.8, 2.8)">e</text><text xml:space="preserve" font-family="Novecentowide-Normal,Novecento wide" font-size="112.0" fill="#000000" transform="matrix(1.00, 0.00, -0.00, -1.00, 703.3, 2.8)"> </text><text xml:space="preserve" font-family="Novecentowide-Normal,Novecento wide" font-size="112.0" fill="#000000" transform="matrix(1.00, 0.00, -0.00, -1.00, 731.3, 2.8)">h</text><text xml:space="preserve" font-family="Novecentowide-Normal,Novecento wide" font-size="112.0" fill="#000000" transform="matrix(1.00, 0.00, -0.00, -1.00, 813.4, 2.8)">e</text><text xml:space="preserve" font-family="Novecentowide-Normal,Novecento wide" font-size="112.0" fill="#000000" transform="matrix(1.00, 0.00, -0.00, -1.00, 883.8, 2.8)">r</text><text xml:space="preserve" font-family="Novecentowide-Normal,Novecento wide" font-size="112.0" fill="#000000" transform="matrix(1.00, 0.00, -0.00, -1.00, 955.2, 2.8)">e</text></g></svg>