<?xml version="1.0" encoding="UTF-8" standalone="no"?><svg xmlns="http://www.w3.org/2000/svg" xmlns:xlink="http://www.w3.org/1999/xlink" clip-rule="evenodd" stroke-miterlimit="10" viewBox="0 0 964 90"><desc>SVG generated by Keynote</desc><defs></defs><g transform="matrix(1.00, 0.00, -0.00, -1.00, 0.0, 90.0)"><text xml:space="preserve" font-family="ZapfDingbatsITC,Zapf Dingbats" font-size="90.0" fill="#FF2600" transform="matrix(1.00, 0.00, -0.00, -1.00, 0.0, 16.4)">★</text><text xml:space="preserve" font-family="Novecentowide-Normal,Novecento wide" font-size="72.0" fill="#000000" transform="matrix(1.00, 0.00, -0.00, -1.00, 73.4, 12.3)">J</text><text xml:space="preserve" font-family="Novecentowide-Normal,Novecento wide" font-size="72.0" fill="#000000" transform="matrix(1.00, 0.00, -0.00, -1.00, 117.2, 12.3)">a</text><text xml:space="preserve" font-family="Novecentowide-Normal,Novecento wide" font-size="72.0" fill="#000000" transform="matrix(1.00, 0.00, -0.00, -1.00, 161.3, 12.3)">v</text><text xml:space="preserve" font-family="Novecentowide-Normal,Novecento wide" font-size="72.0" fill="#000000" transform="matrix(1.00, 0.00, -0.00, -1.00, 205.4, 12.3)">a</text><text xml:space="preserve" font-family="Novecentowide-Normal,Novecento wide" font-size="72.0" fill="#000000" transform="matrix(1.00, 0.00, -0.00, -1.00, 255.6, 12.3)">S</text><text xml:space="preserve" font-family="Novecentowide-Normal,Novecento wide" font-size="72.0" fill="#000000" transform="matrix(1.00, 0.00, -0.00, -1.00, 298.5, 12.3)">c</text><text xml:space="preserve" font-family="Novecentowide-Normal,Novecento wide" font-size="72.0" fill="#000000" transform="matrix(1.00, 0.00, -0.00, -1.00, 352.6, 12.3)">r</text><text xml:space="preserve" font-family="Novecentowide-Normal,Novecento wide" font-size="72.0" fill="#000000" transform="matrix(1.00, 0.00, -0.00, -1.00, 398.4, 12.3)">i</text><text xml:space="preserve" font-family="Novecentowide-Normal,Novecento wide" font-size="72.0" fill="#000000" transform="matrix(1.00, 0.00, -0.00, -1.00, 417.7, 12.3)">p</text><text xml:space="preserve" font-family="Novecentowide-Normal,Novecento wide" font-size="72.0" fill="#000000" transform="matrix(1.00, 0.00, -0.00, -1.00, 460.8, 12.3)">t</text><text xml:space="preserve" font-family="Novecentowide-Normal,Novecento wide" font-size="72.0" fill="#000000" transform="matrix(1.00, 0.00, -0.00, -1.00, 503.6, 12.3)"> </text><text xml:space="preserve" font-family="Novecentowide-Normal,Novecento wide" font-size="72.0" fill="#000000" transform="matrix(1.00, 0.00, -0.00, -1.00, 521.6, 12.3)">e</text><text xml:space="preserve" font-family="Novecentowide-Normal,Novecento wide" font-size="72.0" fill="#000000" transform="matrix(1.00, 0.00, -0.00, -1.00, 566.8, 12.3)">n</text><text xml:space="preserve" font-family="Novecentowide-Normal,Novecento wide" font-size="72.0" fill="#000000" transform="matrix(1.00, 0.00, -0.00, -1.00, 621.6, 12.3)">t</text><text xml:space="preserve" font-family="Novecentowide-Normal,Novecento wide" font-size="72.0" fill="#000000" transform="matrix(1.00, 0.00, -0.00, -1.00, 664.3, 12.3)">h</text><text xml:space="preserve" font-family="Novecentowide-Normal,Novecento wide" font-size="72.0" fill="#000000" transform="matrix(1.00, 0.00, -0.00, -1.00, 716.2, 12.3)">u</text><text xml:space="preserve" font-family="Novecentowide-Normal,Novecento wide" font-size="72.0" fill="#000000" transform="matrix(1.00, 0.00, -0.00, -1.00, 768.3, 12.3)">s</text><text xml:space="preserve" font-family="Novecentowide-Normal,Novecento wide" font-size="72.0" fill="#000000" transform="matrix(1.00, 0.00, -0.00, -1.00, 811.2, 12.3)">i</text><text xml:space="preserve" font-family="Novecentowide-Normal,Novecento wide" font-size="72.0" fill="#000000" transform="matrix(1.00, 0.00, -0.00, -1.00, 829.7, 12.3)">a</text><text xml:space="preserve" font-family="Novecentowide-Normal,Novecento wide" font-size="72.0" fill="#000000" transform="matrix(1.00, 0.00, -0.00, -1.00, 879.9, 12.3)">s</text><text xml:space="preserve" font-family="Novecentowide-Normal,Novecento wide" font-size="72.0" fill="#000000" transform="matrix(1.00, 0.00, -0.00, -1.00, 921.5, 12.3)">t</text></g></svg>