<?xml version="1.0" encoding="UTF-8" standalone="no"?><svg xmlns="http://www.w3.org/2000/svg" xmlns:xlink="http://www.w3.org/1999/xlink" clip-rule="evenodd" stroke-miterlimit="10" viewBox="0 0 828 75"><desc>SVG generated by Keynote</desc><defs></defs><g transform="matrix(1.00, 0.00, -0.00, -1.00, 0.0, 75.0)"><text xml:space="preserve" font-family="Novecentowide-Normal,Novecento wide" font-size="35.0" fill="#000000" transform="matrix(1.00, 0.00, -0.00, -1.00, 1.4, 48.3)">V</text><text xml:space="preserve" font-family="Novecentowide-Normal,Novecento wide" font-size="35.0" fill="#000000" transform="matrix(1.00, 0.00, -0.00, -1.00, 25.9, 48.3)">i</text><text xml:space="preserve" font-family="Novecentowide-Normal,Novecento wide" font-size="35.0" fill="#000000" transform="matrix(1.00, 0.00, -0.00, -1.00, 35.3, 48.3)">k</text><text xml:space="preserve" font-family="Novecentowide-Normal,Novecento wide" font-size="35.0" fill="#000000" transform="matrix(1.00, 0.00, -0.00, -1.00, 59.4, 48.3)">t</text><text xml:space="preserve" font-family="Novecentowide-Normal,Novecento wide" font-size="35.0" fill="#000000" transform="matrix(1.00, 0.00, -0.00, -1.00, 79.2, 48.3)">o</text><text xml:space="preserve" font-family="Novecentowide-Normal,Novecento wide" font-size="35.0" fill="#000000" transform="matrix(1.00, 0.00, -0.00, -1.00, 107.3, 48.3)">r</text><text xml:space="preserve" font-family="Novecentowide-Normal,Novecento wide" font-size="35.0" fill="#000000" transform="matrix(1.00, 0.00, -0.00, -1.00, 129.6, 48.3)"> </text><text xml:space="preserve" font-family="Novecentowide-Normal,Novecento wide" font-size="35.0" fill="#000000" transform="matrix(1.00, 0.00, -0.00, -1.00, 138.4, 48.3)">G</text><text xml:space="preserve" font-family="Novecentowide-Normal,Novecento wide" font-size="35.0" fill="#000000" transform="matrix(1.00, 0.00, -0.00, -1.00, 166.2, 48.3)">a</text><text xml:space="preserve" font-family="Novecentowide-Normal,Novecento wide" font-size="35.0" fill="#000000" transform="matrix(1.00, 0.00, -0.00, -1.00, 191.0, 48.3)">m</text><text xml:space="preserve" font-family="Novecentowide-Normal,Novecento wide" font-size="35.0" fill="#000000" transform="matrix(1.00, 0.00, -0.00, -1.00, 219.9, 48.3)">o</text><text xml:space="preserve" font-family="Novecentowide-Normal,Novecento wide" font-size="35.0" fill="#000000" transform="matrix(1.00, 0.00, -0.00, -1.00, 247.0, 48.3)">v</text><text xml:space="preserve" font-family="Novecentowide-Normal,Novecento wide" font-size="35.0" fill="#000000" transform="matrix(1.00, 0.00, -0.00, -1.00, 272.2, 48.3)"> </text><text xml:space="preserve" font-family="Novecentowide-Normal,Novecento wide" font-size="35.0" fill="#000000" transform="matrix(1.00, 0.00, -0.00, -1.00, 1.4, 6.3)">S</text><text xml:space="preserve" font-family="Novecentowide-Normal,Novecento wide" font-size="35.0" fill="#000000" transform="matrix(1.00, 0.00, -0.00, -1.00, 22.2, 6.3)">e</text><text xml:space="preserve" font-family="Novecentowide-Normal,Novecento wide" font-size="35.0" fill="#000000" transform="matrix(1.00, 0.00, -0.00, -1.00, 44.2, 6.3)">n</text><text xml:space="preserve" font-family="Novecentowide-Normal,Novecento wide" font-size="35.0" fill="#000000" transform="matrix(1.00, 0.00, -0.00, -1.00, 70.8, 6.3)">i</text><text xml:space="preserve" font-family="Novecentowide-Normal,Novecento wide" font-size="35.0" fill="#000000" transform="matrix(1.00, 0.00, -0.00, -1.00, 80.0, 6.3)">o</text><text xml:space="preserve" font-family="Novecentowide-Normal,Novecento wide" font-size="35.0" fill="#000000" transform="matrix(1.00, 0.00, -0.00, -1.00, 108.2, 6.3)">r</text><text xml:space="preserve" font-family="Novecentowide-Normal,Novecento wide" font-size="35.0" fill="#000000" transform="matrix(1.00, 0.00, -0.00, -1.00, 130.5, 6.3)"> </text><text xml:space="preserve" font-family="Novecentowide-Normal,Novecento wide" font-size="35.0" fill="#000000" transform="matrix(1.00, 0.00, -0.00, -1.00, 139.2, 6.3)">S</text><text xml:space="preserve" font-family="Novecentowide-Normal,Novecento wide" font-size="35.0" fill="#000000" transform="matrix(1.00, 0.00, -0.00, -1.00, 160.1, 6.3)">o</text><text xml:space="preserve" font-family="Novecentowide-Normal,Novecento wide" font-size="35.0" fill="#000000" transform="matrix(1.00, 0.00, -0.00, -1.00, 188.3, 6.3)">f</text><text xml:space="preserve" font-family="Novecentowide-Normal,Novecento wide" font-size="35.0" fill="#000000" transform="matrix(1.00, 0.00, -0.00, -1.00, 208.9, 6.3)">t</text><text xml:space="preserve" font-family="Novecentowide-Normal,Novecento wide" font-size="35.0" fill="#000000" transform="matrix(1.00, 0.00, -0.00, -1.00, 230.7, 6.3)">w</text><text xml:space="preserve" font-family="Novecentowide-Normal,Novecento wide" font-size="35.0" fill="#000000" transform="matrix(1.00, 0.00, -0.00, -1.00, 261.3, 6.3)">a</text><text xml:space="preserve" font-family="Novecentowide-Normal,Novecento wide" font-size="35.0" fill="#000000" transform="matrix(1.00, 0.00, -0.00, -1.00, 286.1, 6.3)">r</text><text xml:space="preserve" font-family="Novecentowide-Normal,Novecento wide" font-size="35.0" fill="#000000" transform="matrix(1.00, 0.00, -0.00, -1.00, 308.3, 6.3)">e</text><text xml:space="preserve" font-family="Novecentowide-Normal,Novecento wide" font-size="35.0" fill="#000000" transform="matrix(1.00, 0.00, -0.00, -1.00, 330.4, 6.3)"> </text><text xml:space="preserve" font-family="Novecentowide-Normal,Novecento wide" font-size="35.0" fill="#000000" transform="matrix(1.00, 0.00, -0.00, -1.00, 339.1, 6.3)">E</text><text xml:space="preserve" font-family="Novecentowide-Normal,Novecento wide" font-size="35.0" fill="#000000" transform="matrix(1.00, 0.00, -0.00, -1.00, 361.1, 6.3)">N</text><text xml:space="preserve" font-family="Novecentowide-Normal,Novecento wide" font-size="35.0" fill="#000000" transform="matrix(1.00, 0.00, -0.00, -1.00, 387.5, 6.3)">G</text><text xml:space="preserve" font-family="Novecentowide-Normal,Novecento wide" font-size="35.0" fill="#000000" transform="matrix(1.00, 0.00, -0.00, -1.00, 415.3, 6.3)">I</text><text xml:space="preserve" font-family="Novecentowide-Normal,Novecento wide" font-size="35.0" fill="#000000" transform="matrix(1.00, 0.00, -0.00, -1.00, 424.7, 6.3)">N</text><text xml:space="preserve" font-family="Novecentowide-Normal,Novecento wide" font-size="35.0" fill="#000000" transform="matrix(1.00, 0.00, -0.00, -1.00, 451.3, 6.3)">E</text><text xml:space="preserve" font-family="Novecentowide-Normal,Novecento wide" font-size="35.0" fill="#000000" transform="matrix(1.00, 0.00, -0.00, -1.00, 473.3, 6.3)">E</text><text xml:space="preserve" font-family="Novecentowide-Normal,Novecento wide" font-size="35.0" fill="#000000" transform="matrix(1.00, 0.00, -0.00, -1.00, 495.4, 6.3)">R</text><text xml:space="preserve" font-family="Novecentowide-Normal,Novecento wide" font-size="35.0" fill="#000000" transform="matrix(1.00, 0.00, -0.00, -1.00, 517.6, 6.3)">,</text><text xml:space="preserve" font-family="Novecentowide-Normal,Novecento wide" font-size="35.0" fill="#000000" transform="matrix(1.00, 0.00, -0.00, -1.00, 525.3, 6.3)"> </text><text xml:space="preserve" font-family="Novecentowide-Normal,Novecento wide" font-size="35.0" fill="#000000" transform="matrix(1.00, 0.00, -0.00, -1.00, 534.1, 6.3)">F</text><text xml:space="preserve" font-family="Novecentowide-Normal,Novecento wide" font-size="35.0" fill="#000000" transform="matrix(1.00, 0.00, -0.00, -1.00, 551.0, 6.3)">a</text><text xml:space="preserve" font-family="Novecentowide-Normal,Novecento wide" font-size="35.0" fill="#000000" transform="matrix(1.00, 0.00, -0.00, -1.00, 575.8, 6.3)">r</text><text xml:space="preserve" font-family="Novecentowide-Normal,Novecento wide" font-size="35.0" fill="#000000" transform="matrix(1.00, 0.00, -0.00, -1.00, 598.1, 6.3)">a</text><text xml:space="preserve" font-family="Novecentowide-Normal,Novecento wide" font-size="35.0" fill="#000000" transform="matrix(1.00, 0.00, -0.00, -1.00, 620.2, 6.3)">t</text><text xml:space="preserve" font-family="Novecentowide-Normal,Novecento wide" font-size="35.0" fill="#000000" transform="matrix(1.00, 0.00, -0.00, -1.00, 637.9, 6.3)">a</text><text xml:space="preserve" font-family="Novecentowide-Normal,Novecento wide" font-size="35.0" fill="#000000" transform="matrix(1.00, 0.00, -0.00, -1.00, 663.0, 6.3)"> </text><text xml:space="preserve" font-family="Novecentowide-Normal,Novecento wide" font-size="35.0" fill="#000000" transform="matrix(1.00, 0.00, -0.00, -1.00, 671.8, 6.3)">S</text><text xml:space="preserve" font-family="Novecentowide-Normal,Novecento wide" font-size="35.0" fill="#000000" transform="matrix(1.00, 0.00, -0.00, -1.00, 691.9, 6.3)">y</text><text xml:space="preserve" font-family="Novecentowide-Normal,Novecento wide" font-size="35.0" fill="#000000" transform="matrix(1.00, 0.00, -0.00, -1.00, 714.0, 6.3)">s</text><text xml:space="preserve" font-family="Novecentowide-Normal,Novecento wide" font-size="35.0" fill="#000000" transform="matrix(1.00, 0.00, -0.00, -1.00, 734.2, 6.3)">t</text><text xml:space="preserve" font-family="Novecentowide-Normal,Novecento wide" font-size="35.0" fill="#000000" transform="matrix(1.00, 0.00, -0.00, -1.00, 755.0, 6.3)">e</text><text xml:space="preserve" font-family="Novecentowide-Normal,Novecento wide" font-size="35.0" fill="#000000" transform="matrix(1.00, 0.00, -0.00, -1.00, 777.0, 6.3)">m</text><text xml:space="preserve" font-family="Novecentowide-Normal,Novecento wide" font-size="35.0" fill="#000000" transform="matrix(1.00, 0.00, -0.00, -1.00, 806.2, 6.3)">s</text></g></svg>