<?xml version="1.0" encoding="UTF-8" standalone="no"?><svg xmlns="http://www.w3.org/2000/svg" xmlns:xlink="http://www.w3.org/1999/xlink" clip-rule="evenodd" stroke-miterlimit="10" viewBox="0 0 1071 178"><desc>SVG generated by Keynote</desc><defs></defs><g transform="matrix(1.00, 0.00, -0.00, -1.00, 0.0, 178.0)"><text xml:space="preserve" font-family="Novecentowide-Bold,Novecento wide" font-weight="bold" font-size="85.0" fill="#000000" transform="matrix(1.00, 0.00, -0.00, -1.00, 2.0, 115.0)">J</text><text xml:space="preserve" font-family="Novecentowide-Bold,Novecento wide" font-weight="bold" font-size="85.0" fill="#000000" transform="matrix(1.00, 0.00, -0.00, -1.00, 54.6, 115.0)">a</text><text xml:space="preserve" font-family="Novecentowide-Bold,Novecento wide" font-weight="bold" font-size="85.0" fill="#000000" transform="matrix(1.00, 0.00, -0.00, -1.00, 107.2, 115.0)">v</text><text xml:space="preserve" font-family="Novecentowide-Bold,Novecento wide" font-weight="bold" font-size="85.0" fill="#000000" transform="matrix(1.00, 0.00, -0.00, -1.00, 159.8, 115.0)">a</text><text xml:space="preserve" font-family="Novecentowide-Bold,Novecento wide" font-weight="bold" font-size="85.0" fill="#000000" transform="matrix(1.00, 0.00, -0.00, -1.00, 220.9, 115.0)"> </text><text xml:space="preserve" font-family="Novecentowide-Bold,Novecento wide" font-weight="bold" font-size="85.0" fill="#000000" transform="matrix(1.00, 0.00, -0.00, -1.00, 242.2, 115.0)">a</text><text xml:space="preserve" font-family="Novecentowide-Bold,Novecento wide" font-weight="bold" font-size="85.0" fill="#000000" transform="matrix(1.00, 0.00, -0.00, -1.00, 301.6, 115.0)">n</text><text xml:space="preserve" font-family="Novecentowide-Bold,Novecento wide" font-weight="bold" font-size="85.0" fill="#000000" transform="matrix(1.00, 0.00, -0.00, -1.00, 368.2, 115.0)">d</text><text xml:space="preserve" font-family="Novecentowide-Bold,Novecento wide" font-weight="bold" font-size="85.0" fill="#000000" transform="matrix(1.00, 0.00, -0.00, -1.00, 434.6, 115.0)"> </text><text xml:space="preserve" font-family="Novecentowide-Bold,Novecento wide" font-weight="bold" font-size="85.0" fill="#000000" transform="matrix(1.00, 0.00, -0.00, -1.00, 455.9, 115.0)">J</text><text xml:space="preserve" font-family="Novecentowide-Bold,Novecento wide" font-weight="bold" font-size="85.0" fill="#000000" transform="matrix(1.00, 0.00, -0.00, -1.00, 508.5, 115.0)">a</text><text xml:space="preserve" font-family="Novecentowide-Bold,Novecento wide" font-weight="bold" font-size="85.0" fill="#000000" transform="matrix(1.00, 0.00, -0.00, -1.00, 561.1, 115.0)">v</text><text xml:space="preserve" font-family="Novecentowide-Bold,Novecento wide" font-weight="bold" font-size="85.0" fill="#000000" transform="matrix(1.00, 0.00, -0.00, -1.00, 613.7, 115.0)">a</text><text xml:space="preserve" font-family="Novecentowide-Bold,Novecento wide" font-weight="bold" font-size="85.0" fill="#000000" transform="matrix(1.00, 0.00, -0.00, -1.00, 673.3, 115.0)">S</text><text xml:space="preserve" font-family="Novecentowide-Bold,Novecento wide" font-weight="bold" font-size="85.0" fill="#000000" transform="matrix(1.00, 0.00, -0.00, -1.00, 725.5, 115.0)">c</text><text xml:space="preserve" font-family="Novecentowide-Bold,Novecento wide" font-weight="bold" font-size="85.0" fill="#000000" transform="matrix(1.00, 0.00, -0.00, -1.00, 788.7, 115.0)">r</text><text xml:space="preserve" font-family="Novecentowide-Bold,Novecento wide" font-weight="bold" font-size="85.0" fill="#000000" transform="matrix(1.00, 0.00, -0.00, -1.00, 846.5, 115.0)">i</text><text xml:space="preserve" font-family="Novecentowide-Bold,Novecento wide" font-weight="bold" font-size="85.0" fill="#000000" transform="matrix(1.00, 0.00, -0.00, -1.00, 874.1, 115.0)">p</text><text xml:space="preserve" font-family="Novecentowide-Bold,Novecento wide" font-weight="bold" font-size="85.0" fill="#000000" transform="matrix(1.00, 0.00, -0.00, -1.00, 929.4, 115.0)">T</text><text xml:space="preserve" font-family="Novecentowide-Bold,Novecento wide" font-weight="bold" font-size="85.0" fill="#000000" transform="matrix(1.00, 0.00, -0.00, -1.00, 981.3, 115.0)">—</text><text xml:space="preserve" font-family="Novecentowide-Bold,Novecento wide" font-weight="bold" font-size="85.0" fill="#000000" transform="matrix(1.00, 0.00, -0.00, -1.00, 1069.4, 115.0)"> </text><text xml:space="preserve" font-family="Novecentowide-Bold,Novecento wide" font-weight="bold" font-size="85.0" fill="#000000" transform="matrix(1.00, 0.00, -0.00, -1.00, 2.0, 13.0)">S</text><text xml:space="preserve" font-family="Novecentowide-Bold,Novecento wide" font-weight="bold" font-size="85.0" fill="#000000" transform="matrix(1.00, 0.00, -0.00, -1.00, 54.1, 13.0)">h</text><text xml:space="preserve" font-family="Novecentowide-Bold,Novecento wide" font-weight="bold" font-size="85.0" fill="#000000" transform="matrix(1.00, 0.00, -0.00, -1.00, 116.5, 13.0)">a</text><text xml:space="preserve" font-family="Novecentowide-Bold,Novecento wide" font-weight="bold" font-size="85.0" fill="#000000" transform="matrix(1.00, 0.00, -0.00, -1.00, 175.9, 13.0)">k</text><text xml:space="preserve" font-family="Novecentowide-Bold,Novecento wide" font-weight="bold" font-size="85.0" fill="#000000" transform="matrix(1.00, 0.00, -0.00, -1.00, 238.3, 13.0)">e</text><text xml:space="preserve" font-family="Novecentowide-Bold,Novecento wide" font-weight="bold" font-size="85.0" fill="#000000" transform="matrix(1.00, 0.00, -0.00, -1.00, 294.6, 13.0)">n</text><text xml:space="preserve" font-family="Novecentowide-Bold,Novecento wide" font-weight="bold" font-size="85.0" fill="#000000" transform="matrix(1.00, 0.00, -0.00, -1.00, 361.2, 13.0)">,</text><text xml:space="preserve" font-family="Novecentowide-Bold,Novecento wide" font-weight="bold" font-size="85.0" fill="#000000" transform="matrix(1.00, 0.00, -0.00, -1.00, 384.8, 13.0)"> </text><text xml:space="preserve" font-family="Novecentowide-Bold,Novecento wide" font-weight="bold" font-size="85.0" fill="#000000" transform="matrix(1.00, 0.00, -0.00, -1.00, 406.0, 13.0)">N</text><text xml:space="preserve" font-family="Novecentowide-Bold,Novecento wide" font-weight="bold" font-size="85.0" fill="#000000" transform="matrix(1.00, 0.00, -0.00, -1.00, 472.0, 13.0)">o</text><text xml:space="preserve" font-family="Novecentowide-Bold,Novecento wide" font-weight="bold" font-size="85.0" fill="#000000" transform="matrix(1.00, 0.00, -0.00, -1.00, 538.9, 13.0)">t</text><text xml:space="preserve" font-family="Novecentowide-Bold,Novecento wide" font-weight="bold" font-size="85.0" fill="#000000" transform="matrix(1.00, 0.00, -0.00, -1.00, 590.8, 13.0)"> </text><text xml:space="preserve" font-family="Novecentowide-Bold,Novecento wide" font-weight="bold" font-size="85.0" fill="#000000" transform="matrix(1.00, 0.00, -0.00, -1.00, 612.1, 13.0)">S</text><text xml:space="preserve" font-family="Novecentowide-Bold,Novecento wide" font-weight="bold" font-size="85.0" fill="#000000" transform="matrix(1.00, 0.00, -0.00, -1.00, 664.3, 13.0)">t</text><text xml:space="preserve" font-family="Novecentowide-Bold,Novecento wide" font-weight="bold" font-size="85.0" fill="#000000" transform="matrix(1.00, 0.00, -0.00, -1.00, 716.2, 13.0)">i</text><text xml:space="preserve" font-family="Novecentowide-Bold,Novecento wide" font-weight="bold" font-size="85.0" fill="#000000" transform="matrix(1.00, 0.00, -0.00, -1.00, 743.7, 13.0)">r</text><text xml:space="preserve" font-family="Novecentowide-Bold,Novecento wide" font-weight="bold" font-size="85.0" fill="#000000" transform="matrix(1.00, 0.00, -0.00, -1.00, 801.5, 13.0)">r</text><text xml:space="preserve" font-family="Novecentowide-Bold,Novecento wide" font-weight="bold" font-size="85.0" fill="#000000" transform="matrix(1.00, 0.00, -0.00, -1.00, 859.3, 13.0)">e</text><text xml:space="preserve" font-family="Novecentowide-Bold,Novecento wide" font-weight="bold" font-size="85.0" fill="#000000" transform="matrix(1.00, 0.00, -0.00, -1.00, 915.7, 13.0)">d</text></g></svg>