<?xml version="1.0" encoding="UTF-8" standalone="no"?><svg xmlns="http://www.w3.org/2000/svg" xmlns:xlink="http://www.w3.org/1999/xlink" clip-rule="evenodd" stroke-miterlimit="10" viewBox="0 0 922 304"><desc>SVG generated by Keynote</desc><defs></defs><g transform="matrix(1.00, 0.00, -0.00, -1.00, 0.0, 304.0)"><text xml:space="preserve" font-family="Novecentowide-Light,Novecento wide" font-size="96.0" fill="#FFFFFF" transform="matrix(1.00, 0.00, -0.00, -1.00, 186.2, 233.9)">S</text><text xml:space="preserve" font-family="Novecentowide-Light,Novecento wide" font-size="96.0" fill="#FFFFFF" transform="matrix(1.00, 0.00, -0.00, -1.00, 239.7, 233.9)">t</text><text xml:space="preserve" font-family="Novecentowide-Light,Novecento wide" font-size="96.0" fill="#FFFFFF" transform="matrix(1.00, 0.00, -0.00, -1.00, 292.0, 233.9)">o</text><text xml:space="preserve" font-family="Novecentowide-Light,Novecento wide" font-size="96.0" fill="#FFFFFF" transform="matrix(1.00, 0.00, -0.00, -1.00, 370.1, 233.9)">r</text><text xml:space="preserve" font-family="Novecentowide-Light,Novecento wide" font-size="96.0" fill="#FFFFFF" transform="matrix(1.00, 0.00, -0.00, -1.00, 425.3, 233.9)">y</text><text xml:space="preserve" font-family="Novecentowide-Light,Novecento wide" font-size="96.0" fill="#FFFFFF" transform="matrix(1.00, 0.00, -0.00, -1.00, 485.0, 233.9)"> </text><text xml:space="preserve" font-family="Novecentowide-Light,Novecento wide" font-size="96.0" fill="#FFFFFF" transform="matrix(1.00, 0.00, -0.00, -1.00, 509.0, 233.9)">o</text><text xml:space="preserve" font-family="Novecentowide-Light,Novecento wide" font-size="96.0" fill="#FFFFFF" transform="matrix(1.00, 0.00, -0.00, -1.00, 587.0, 233.9)">n</text><text xml:space="preserve" font-family="Novecentowide-Light,Novecento wide" font-size="96.0" fill="#FFFFFF" transform="matrix(1.00, 0.00, -0.00, -1.00, 658.9, 233.9)">e</text><text xml:space="preserve" font-family="Novecentowide-Light,Novecento wide" font-size="96.0" fill="#FFFFFF" transform="matrix(1.00, 0.00, -0.00, -1.00, 717.6, 233.9)">:</text><text xml:space="preserve" font-family="Novecentowide-Light,Novecento wide" font-size="96.0" fill="#FFFFFF" transform="matrix(1.00, 0.00, -0.00, -1.00, 735.8, 233.9)"> </text><text xml:space="preserve" font-family="Novecentowide-Light,Novecento wide" font-size="96.0" fill="#FFFFFF" transform="matrix(1.00, 0.00, -0.00, -1.00, 232.7, 118.9)">t</text><text xml:space="preserve" font-family="Novecentowide-Light,Novecento wide" font-size="96.0" fill="#FFFFFF" transform="matrix(1.00, 0.00, -0.00, -1.00, 288.9, 118.9)">h</text><text xml:space="preserve" font-family="Novecentowide-Light,Novecento wide" font-size="96.0" fill="#FFFFFF" transform="matrix(1.00, 0.00, -0.00, -1.00, 358.2, 118.9)">e</text><text xml:space="preserve" font-family="Novecentowide-Light,Novecento wide" font-size="96.0" fill="#FFFFFF" transform="matrix(1.00, 0.00, -0.00, -1.00, 416.9, 118.9)"> </text><text xml:space="preserve" font-family="Novecentowide-Light,Novecento wide" font-size="96.0" fill="#FFFFFF" transform="matrix(1.00, 0.00, -0.00, -1.00, 440.9, 118.9)">l</text><text xml:space="preserve" font-family="Novecentowide-Light,Novecento wide" font-size="96.0" fill="#FFFFFF" transform="matrix(1.00, 0.00, -0.00, -1.00, 496.3, 118.9)">a</text><text xml:space="preserve" font-family="Novecentowide-Light,Novecento wide" font-size="96.0" fill="#FFFFFF" transform="matrix(1.00, 0.00, -0.00, -1.00, 564.4, 118.9)">z</text><text xml:space="preserve" font-family="Novecentowide-Light,Novecento wide" font-size="96.0" fill="#FFFFFF" transform="matrix(1.00, 0.00, -0.00, -1.00, 629.6, 118.9)">y</text><text xml:space="preserve" font-family="Novecentowide-Light,Novecento wide" font-size="96.0" fill="#FFFFFF" transform="matrix(1.00, 0.00, -0.00, -1.00, 689.3, 118.9)"> </text><text xml:space="preserve" font-family="Novecentowide-Light,Novecento wide" font-size="96.0" fill="#FFFFFF" transform="matrix(1.00, 0.00, -0.00, -1.00, 713.3, 118.9)"> </text><text xml:space="preserve" font-family="Novecentowide-Light,Novecento wide" font-size="96.0" fill="#FFFFFF" transform="matrix(1.00, 0.00, -0.00, -1.00, -3.1, 3.9)">s</text><text xml:space="preserve" font-family="Novecentowide-Light,Novecento wide" font-size="96.0" fill="#FFFFFF" transform="matrix(1.00, 0.00, -0.00, -1.00, 53.1, 3.9)">u</text><text xml:space="preserve" font-family="Novecentowide-Light,Novecento wide" font-size="96.0" fill="#FFFFFF" transform="matrix(1.00, 0.00, -0.00, -1.00, 120.3, 3.9)">p</text><text xml:space="preserve" font-family="Novecentowide-Light,Novecento wide" font-size="96.0" fill="#FFFFFF" transform="matrix(1.00, 0.00, -0.00, -1.00, 175.5, 3.9)">p</text><text xml:space="preserve" font-family="Novecentowide-Light,Novecento wide" font-size="96.0" fill="#FFFFFF" transform="matrix(1.00, 0.00, -0.00, -1.00, 231.9, 3.9)">o</text><text xml:space="preserve" font-family="Novecentowide-Light,Novecento wide" font-size="96.0" fill="#FFFFFF" transform="matrix(1.00, 0.00, -0.00, -1.00, 309.9, 3.9)">r</text><text xml:space="preserve" font-family="Novecentowide-Light,Novecento wide" font-size="96.0" fill="#FFFFFF" transform="matrix(1.00, 0.00, -0.00, -1.00, 367.1, 3.9)">t</text><text xml:space="preserve" font-family="Novecentowide-Light,Novecento wide" font-size="96.0" fill="#FFFFFF" transform="matrix(1.00, 0.00, -0.00, -1.00, 423.2, 3.9)"> </text><text xml:space="preserve" font-family="Novecentowide-Light,Novecento wide" font-size="96.0" fill="#FFFFFF" transform="matrix(1.00, 0.00, -0.00, -1.00, 447.2, 3.9)">e</text><text xml:space="preserve" font-family="Novecentowide-Light,Novecento wide" font-size="96.0" fill="#FFFFFF" transform="matrix(1.00, 0.00, -0.00, -1.00, 506.0, 3.9)">n</text><text xml:space="preserve" font-family="Novecentowide-Light,Novecento wide" font-size="96.0" fill="#FFFFFF" transform="matrix(1.00, 0.00, -0.00, -1.00, 577.2, 3.9)">g</text><text xml:space="preserve" font-family="Novecentowide-Light,Novecento wide" font-size="96.0" fill="#FFFFFF" transform="matrix(1.00, 0.00, -0.00, -1.00, 653.7, 3.9)">i</text><text xml:space="preserve" font-family="Novecentowide-Light,Novecento wide" font-size="96.0" fill="#FFFFFF" transform="matrix(1.00, 0.00, -0.00, -1.00, 676.8, 3.9)">n</text><text xml:space="preserve" font-family="Novecentowide-Light,Novecento wide" font-size="96.0" fill="#FFFFFF" transform="matrix(1.00, 0.00, -0.00, -1.00, 748.6, 3.9)">e</text><text xml:space="preserve" font-family="Novecentowide-Light,Novecento wide" font-size="96.0" fill="#FFFFFF" transform="matrix(1.00, 0.00, -0.00, -1.00, 807.3, 3.9)">e</text><text xml:space="preserve" font-family="Novecentowide-Light,Novecento wide" font-size="96.0" fill="#FFFFFF" transform="matrix(1.00, 0.00, -0.00, -1.00, 866.1, 3.9)">r</text></g></svg>