<?xml version="1.0" encoding="UTF-8" standalone="no"?><svg xmlns="http://www.w3.org/2000/svg" xmlns:xlink="http://www.w3.org/1999/xlink" clip-rule="evenodd" stroke-miterlimit="10" viewBox="0 0 570 556"><desc>SVG generated by Keynote</desc><defs></defs><g transform="matrix(1.00, 0.00, -0.00, -1.00, 0.0, 556.0)"><g><clipPath id="clip0x600000aa9360"><path d="M 198.6 1.4 L 334.6 1.4 L 334.6 123.8 L 198.6 123.8 Z M 198.6 1.4 "></path></clipPath><g clip-path="url(#clip0x600000aa9360)"><image xlink:href="../../FA659E1F-57CF-412C-8960-F142DB2FED25/assets/1AB5187A3FAC4E68750F718B4E06D5AD.png" width="500.00" height="450.00" transform="matrix(0.27, 0.00, -0.00, -0.27, 198.6, 123.8)"></image></g></g><g><clipPath id="clip0x6180006befc0"><path d="M 209.3 343.3 L 325.1 343.3 L 325.1 555.6 L 209.3 555.6 Z M 209.3 343.3 "></path></clipPath><g clip-path="url(#clip0x6180006befc0)"><image xlink:href="../../FA659E1F-57CF-412C-8960-F142DB2FED25/assets/9BFC15A0724E4AAE8CFD5BE25AE4747F.png" width="500.00" height="917.00" transform="matrix(0.23, 0.00, -0.00, -0.23, 209.3, 555.6)"></image></g></g><g><clipPath id="clip0x608000ab6140"><path d="M 1.0 393.3 L 126.8 393.3 L 126.8 492.6 L 1.0 492.6 Z M 1.0 393.3 "></path></clipPath><g clip-path="url(#clip0x608000ab6140)"><image xlink:href="../../FA659E1F-57CF-412C-8960-F142DB2FED25/assets/CB64845B1F9B6E7E6E1121B086ED59CB.png" width="500.00" height="395.00" transform="matrix(0.25, 0.00, -0.00, -0.25, 1.0, 492.6)"></image></g></g><g><clipPath id="clip0x610000aa1a40"><path d="M 199.8 187.2 L 325.6 187.2 L 325.6 313.0 L 199.8 313.0 Z M 199.8 187.2 "></path></clipPath><g clip-path="url(#clip0x610000aa1a40)"><image xlink:href="../../FA659E1F-57CF-412C-8960-F142DB2FED25/assets/4C506E4593EB565DEB51A3278FCC8A97.png" width="428.00" height="428.00" transform="matrix(0.29, 0.00, -0.00, -0.29, 199.8, 313.0)"></image></g></g><g><clipPath id="clip0x608000ab61a0"><path d="M 398.6 185.6 L 527.4 185.6 L 527.4 314.5 L 398.6 314.5 Z M 398.6 185.6 "></path></clipPath><g clip-path="url(#clip0x608000ab61a0)"><image xlink:href="../../FA659E1F-57CF-412C-8960-F142DB2FED25/assets/6B1F3DA0CCFD42600910872497E8C0E8.png" width="256.00" height="256.00" transform="matrix(0.50, 0.00, -0.00, -0.50, 398.6, 314.5)"></image></g></g><g><clipPath id="clip0x608000ab63e0"><path d="M 387.0 367.3 L 538.0 367.3 L 538.0 518.3 L 387.0 518.3 Z M 387.0 367.3 "></path></clipPath><g clip-path="url(#clip0x608000ab63e0)"><image xlink:href="../../FA659E1F-57CF-412C-8960-F142DB2FED25/assets/BF37997C651D105E92C381F9D1FF8E83.png" width="600.00" height="600.00" transform="matrix(0.25, 0.00, -0.00, -0.25, 387.0, 518.3)"></image></g></g><g><clipPath id="clip0x600000aa9420"><path d="M 1.0 0.4 L 126.8 0.4 L 126.8 126.3 L 1.0 126.3 Z M 1.0 0.4 "></path></clipPath><g clip-path="url(#clip0x600000aa9420)"><image xlink:href="../../FA659E1F-57CF-412C-8960-F142DB2FED25/assets/7653C6BB6666D996809E479CDE25D547.png" width="250.00" height="250.00" transform="matrix(0.50, 0.00, -0.00, -0.50, 1.0, 126.3)"></image></g></g><g><clipPath id="clip0x608000ab67a0"><path d="M 1.0 176.8 L 126.8 176.8 L 126.8 323.5 L 1.0 323.5 Z M 1.0 176.8 "></path></clipPath><g clip-path="url(#clip0x608000ab67a0)"><image xlink:href="../../FA659E1F-57CF-412C-8960-F142DB2FED25/assets/87C99824E3347906DEC0B174BEDCD46A.png" width="500.00" height="583.00" transform="matrix(0.25, 0.00, -0.00, -0.25, 1.0, 323.5)"></image></g></g><g><clipPath id="clip0x600000aa8ee0"><path d="M 357.0 14.6 L 569.0 14.6 L 569.0 110.6 L 357.0 110.6 Z M 357.0 14.6 "></path></clipPath><g clip-path="url(#clip0x600000aa8ee0)"><image xlink:href="../../FA659E1F-57CF-412C-8960-F142DB2FED25/assets/030E1EFA6A4B234D89BAA052FA58DD7A.png" width="360.00" height="163.00" transform="matrix(0.59, 0.00, -0.00, -0.59, 357.0, 110.6)"></image></g></g></g></svg>