<?xml version="1.0" encoding="UTF-8" standalone="no"?><svg xmlns="http://www.w3.org/2000/svg" xmlns:xlink="http://www.w3.org/1999/xlink" clip-rule="evenodd" stroke-miterlimit="10" viewBox="0 0 1531 90"><desc>SVG generated by Keynote</desc><defs></defs><g transform="matrix(1.00, 0.00, -0.00, -1.00, 0.0, 90.0)"><text xml:space="preserve" font-family="ZapfDingbatsITC,Zapf Dingbats" font-size="90.0" fill="#FF2600" transform="matrix(1.00, 0.00, -0.00, -1.00, 0.0, 16.4)">★</text><text xml:space="preserve" font-family="Novecentowide-Normal,Novecento wide" font-size="72.0" fill="#000000" transform="matrix(1.00, 0.00, -0.00, -1.00, 73.4, 12.3)">S</text><text xml:space="preserve" font-family="Novecentowide-Normal,Novecento wide" font-size="72.0" fill="#000000" transform="matrix(1.00, 0.00, -0.00, -1.00, 116.3, 12.3)">o</text><text xml:space="preserve" font-family="Novecentowide-Normal,Novecento wide" font-size="72.0" fill="#000000" transform="matrix(1.00, 0.00, -0.00, -1.00, 174.3, 12.3)">f</text><text xml:space="preserve" font-family="Novecentowide-Normal,Novecento wide" font-size="72.0" fill="#000000" transform="matrix(1.00, 0.00, -0.00, -1.00, 216.9, 12.3)">t</text><text xml:space="preserve" font-family="Novecentowide-Normal,Novecento wide" font-size="72.0" fill="#000000" transform="matrix(1.00, 0.00, -0.00, -1.00, 261.6, 12.3)">w</text><text xml:space="preserve" font-family="Novecentowide-Normal,Novecento wide" font-size="72.0" fill="#000000" transform="matrix(1.00, 0.00, -0.00, -1.00, 324.5, 12.3)">a</text><text xml:space="preserve" font-family="Novecentowide-Normal,Novecento wide" font-size="72.0" fill="#000000" transform="matrix(1.00, 0.00, -0.00, -1.00, 375.5, 12.3)">r</text><text xml:space="preserve" font-family="Novecentowide-Normal,Novecento wide" font-size="72.0" fill="#000000" transform="matrix(1.00, 0.00, -0.00, -1.00, 421.3, 12.3)">e</text><text xml:space="preserve" font-family="Novecentowide-Normal,Novecento wide" font-size="72.0" fill="#000000" transform="matrix(1.00, 0.00, -0.00, -1.00, 466.6, 12.3)"> </text><text xml:space="preserve" font-family="Novecentowide-Normal,Novecento wide" font-size="72.0" fill="#000000" transform="matrix(1.00, 0.00, -0.00, -1.00, 484.6, 12.3)">e</text><text xml:space="preserve" font-family="Novecentowide-Normal,Novecento wide" font-size="72.0" fill="#000000" transform="matrix(1.00, 0.00, -0.00, -1.00, 529.9, 12.3)">n</text><text xml:space="preserve" font-family="Novecentowide-Normal,Novecento wide" font-size="72.0" fill="#000000" transform="matrix(1.00, 0.00, -0.00, -1.00, 584.2, 12.3)">g</text><text xml:space="preserve" font-family="Novecentowide-Normal,Novecento wide" font-size="72.0" fill="#000000" transform="matrix(1.00, 0.00, -0.00, -1.00, 641.4, 12.3)">i</text><text xml:space="preserve" font-family="Novecentowide-Normal,Novecento wide" font-size="72.0" fill="#000000" transform="matrix(1.00, 0.00, -0.00, -1.00, 660.7, 12.3)">n</text><text xml:space="preserve" font-family="Novecentowide-Normal,Novecento wide" font-size="72.0" fill="#000000" transform="matrix(1.00, 0.00, -0.00, -1.00, 715.5, 12.3)">e</text><text xml:space="preserve" font-family="Novecentowide-Normal,Novecento wide" font-size="72.0" fill="#000000" transform="matrix(1.00, 0.00, -0.00, -1.00, 760.7, 12.3)">e</text><text xml:space="preserve" font-family="Novecentowide-Normal,Novecento wide" font-size="72.0" fill="#000000" transform="matrix(1.00, 0.00, -0.00, -1.00, 806.0, 12.3)">r</text><text xml:space="preserve" font-family="Novecentowide-Normal,Novecento wide" font-size="72.0" fill="#000000" transform="matrix(1.00, 0.00, -0.00, -1.00, 851.9, 12.3)"> </text><text xml:space="preserve" font-family="Novecentowide-Normal,Novecento wide" font-size="72.0" fill="#000000" transform="matrix(1.00, 0.00, -0.00, -1.00, 869.9, 12.3)">a</text><text xml:space="preserve" font-family="Novecentowide-Normal,Novecento wide" font-size="72.0" fill="#000000" transform="matrix(1.00, 0.00, -0.00, -1.00, 920.9, 12.3)">n</text><text xml:space="preserve" font-family="Novecentowide-Normal,Novecento wide" font-size="72.0" fill="#000000" transform="matrix(1.00, 0.00, -0.00, -1.00, 975.6, 12.3)">d</text><text xml:space="preserve" font-family="Novecentowide-Normal,Novecento wide" font-size="72.0" fill="#000000" transform="matrix(1.00, 0.00, -0.00, -1.00, 1032.8, 12.3)"> </text><text xml:space="preserve" font-family="Novecentowide-Normal,Novecento wide" font-size="72.0" fill="#000000" transform="matrix(1.00, 0.00, -0.00, -1.00, 1050.8, 12.3)">c</text><text xml:space="preserve" font-family="Novecentowide-Normal,Novecento wide" font-size="72.0" fill="#000000" transform="matrix(1.00, 0.00, -0.00, -1.00, 1105.8, 12.3)">o</text><text xml:space="preserve" font-family="Novecentowide-Normal,Novecento wide" font-size="72.0" fill="#000000" transform="matrix(1.00, 0.00, -0.00, -1.00, 1163.8, 12.3)">n</text><text xml:space="preserve" font-family="Novecentowide-Normal,Novecento wide" font-size="72.0" fill="#000000" transform="matrix(1.00, 0.00, -0.00, -1.00, 1218.5, 12.3)">s</text><text xml:space="preserve" font-family="Novecentowide-Normal,Novecento wide" font-size="72.0" fill="#000000" transform="matrix(1.00, 0.00, -0.00, -1.00, 1261.4, 12.3)">u</text><text xml:space="preserve" font-family="Novecentowide-Normal,Novecento wide" font-size="72.0" fill="#000000" transform="matrix(1.00, 0.00, -0.00, -1.00, 1312.6, 12.3)">l</text><text xml:space="preserve" font-family="Novecentowide-Normal,Novecento wide" font-size="72.0" fill="#000000" transform="matrix(1.00, 0.00, -0.00, -1.00, 1345.9, 12.3)">t</text><text xml:space="preserve" font-family="Novecentowide-Normal,Novecento wide" font-size="72.0" fill="#000000" transform="matrix(1.00, 0.00, -0.00, -1.00, 1382.3, 12.3)">a</text><text xml:space="preserve" font-family="Novecentowide-Normal,Novecento wide" font-size="72.0" fill="#000000" transform="matrix(1.00, 0.00, -0.00, -1.00, 1433.3, 12.3)">n</text><text xml:space="preserve" font-family="Novecentowide-Normal,Novecento wide" font-size="72.0" fill="#000000" transform="matrix(1.00, 0.00, -0.00, -1.00, 1488.0, 12.3)">t</text></g></svg>