<?xml version="1.0" encoding="UTF-8" standalone="no"?><svg xmlns="http://www.w3.org/2000/svg" xmlns:xlink="http://www.w3.org/1999/xlink" clip-rule="evenodd" stroke-miterlimit="10" viewBox="0 0 1260 90"><desc>SVG generated by Keynote</desc><defs></defs><g transform="matrix(1.00, 0.00, -0.00, -1.00, 0.0, 90.0)"><text xml:space="preserve" font-family="ZapfDingbatsITC,Zapf Dingbats" font-size="90.0" fill="#FF2600" transform="matrix(1.00, 0.00, -0.00, -1.00, 0.0, 16.9)">★</text><text xml:space="preserve" font-family="Novecentowide-Normal,Novecento wide" font-size="72.0" fill="#000000" transform="matrix(1.00, 0.00, -0.00, -1.00, 73.4, 12.8)">c</text><text xml:space="preserve" font-family="Novecentowide-Normal,Novecento wide" font-size="72.0" fill="#000000" transform="matrix(1.00, 0.00, -0.00, -1.00, 128.5, 12.8)">o</text><text xml:space="preserve" font-family="Novecentowide-Normal,Novecento wide" font-size="72.0" fill="#000000" transform="matrix(1.00, 0.00, -0.00, -1.00, 187.1, 12.8)">-</text><text xml:space="preserve" font-family="Novecentowide-Normal,Novecento wide" font-size="72.0" fill="#000000" transform="matrix(1.00, 0.00, -0.00, -1.00, 233.8, 12.8)">a</text><text xml:space="preserve" font-family="Novecentowide-Normal,Novecento wide" font-size="72.0" fill="#000000" transform="matrix(1.00, 0.00, -0.00, -1.00, 282.3, 12.8)">u</text><text xml:space="preserve" font-family="Novecentowide-Normal,Novecento wide" font-size="72.0" fill="#000000" transform="matrix(1.00, 0.00, -0.00, -1.00, 334.4, 12.8)">t</text><text xml:space="preserve" font-family="Novecentowide-Normal,Novecento wide" font-size="72.0" fill="#000000" transform="matrix(1.00, 0.00, -0.00, -1.00, 377.1, 12.8)">h</text><text xml:space="preserve" font-family="Novecentowide-Normal,Novecento wide" font-size="72.0" fill="#000000" transform="matrix(1.00, 0.00, -0.00, -1.00, 429.5, 12.8)">o</text><text xml:space="preserve" font-family="Novecentowide-Normal,Novecento wide" font-size="72.0" fill="#000000" transform="matrix(1.00, 0.00, -0.00, -1.00, 487.4, 12.8)">r</text><text xml:space="preserve" font-family="Novecentowide-Normal,Novecento wide" font-size="72.0" fill="#000000" transform="matrix(1.00, 0.00, -0.00, -1.00, 533.3, 12.8)"> </text><text xml:space="preserve" font-family="Novecentowide-Normal,Novecento wide" font-size="72.0" fill="#000000" transform="matrix(1.00, 0.00, -0.00, -1.00, 551.3, 12.8)">a</text><text xml:space="preserve" font-family="Novecentowide-Normal,Novecento wide" font-size="72.0" fill="#000000" transform="matrix(1.00, 0.00, -0.00, -1.00, 602.3, 12.8)">n</text><text xml:space="preserve" font-family="Novecentowide-Normal,Novecento wide" font-size="72.0" fill="#000000" transform="matrix(1.00, 0.00, -0.00, -1.00, 657.0, 12.8)">d</text><text xml:space="preserve" font-family="Novecentowide-Normal,Novecento wide" font-size="72.0" fill="#000000" transform="matrix(1.00, 0.00, -0.00, -1.00, 714.2, 12.8)"> </text><text xml:space="preserve" font-family="Novecentowide-Normal,Novecento wide" font-size="72.0" fill="#000000" transform="matrix(1.00, 0.00, -0.00, -1.00, 732.2, 12.8)">J</text><text xml:space="preserve" font-family="Novecentowide-Normal,Novecento wide" font-size="72.0" fill="#000000" transform="matrix(1.00, 0.00, -0.00, -1.00, 779.3, 12.8)">U</text><text xml:space="preserve" font-family="Novecentowide-Normal,Novecento wide" font-size="72.0" fill="#000000" transform="matrix(1.00, 0.00, -0.00, -1.00, 831.4, 12.8)">G</text><text xml:space="preserve" font-family="Novecentowide-Normal,Novecento wide" font-size="72.0" fill="#000000" transform="matrix(1.00, 0.00, -0.00, -1.00, 888.6, 12.8)"> </text><text xml:space="preserve" font-family="Novecentowide-Normal,Novecento wide" font-size="72.0" fill="#000000" transform="matrix(1.00, 0.00, -0.00, -1.00, 906.6, 12.8)">c</text><text xml:space="preserve" font-family="Novecentowide-Normal,Novecento wide" font-size="72.0" fill="#000000" transform="matrix(1.00, 0.00, -0.00, -1.00, 961.7, 12.8)">o</text><text xml:space="preserve" font-family="Novecentowide-Normal,Novecento wide" font-size="72.0" fill="#000000" transform="matrix(1.00, 0.00, -0.00, -1.00, 1020.3, 12.8)">-</text><text xml:space="preserve" font-family="Novecentowide-Normal,Novecento wide" font-size="72.0" fill="#000000" transform="matrix(1.00, 0.00, -0.00, -1.00, 1067.0, 12.8)">l</text><text xml:space="preserve" font-family="Novecentowide-Normal,Novecento wide" font-size="72.0" fill="#000000" transform="matrix(1.00, 0.00, -0.00, -1.00, 1108.1, 12.8)">e</text><text xml:space="preserve" font-family="Novecentowide-Normal,Novecento wide" font-size="72.0" fill="#000000" transform="matrix(1.00, 0.00, -0.00, -1.00, 1153.4, 12.8)">a</text><text xml:space="preserve" font-family="Novecentowide-Normal,Novecento wide" font-size="72.0" fill="#000000" transform="matrix(1.00, 0.00, -0.00, -1.00, 1204.3, 12.8)">d</text></g></svg>