<?xml version="1.0" encoding="UTF-8" standalone="no"?><svg xmlns="http://www.w3.org/2000/svg" xmlns:xlink="http://www.w3.org/1999/xlink" clip-rule="evenodd" stroke-miterlimit="10" viewBox="0 0 1257 87"><desc>SVG generated by Keynote</desc><defs></defs><g transform="matrix(1.00, 0.00, -0.00, -1.00, 0.0, 87.0)"><text xml:space="preserve" font-family="Novecentowide-Normal,Novecento wide" font-size="72.0" fill="#0042A9" transform="matrix(1.00, 0.00, -0.00, -1.00, 0.6, 10.8)">h</text><text xml:space="preserve" font-family="Novecentowide-Normal,Novecento wide" font-size="72.0" fill="#0042A9" transform="matrix(1.00, 0.00, -0.00, -1.00, 53.3, 10.8)">t</text><text xml:space="preserve" font-family="Novecentowide-Normal,Novecento wide" font-size="72.0" fill="#0042A9" transform="matrix(1.00, 0.00, -0.00, -1.00, 99.1, 10.8)">t</text><text xml:space="preserve" font-family="Novecentowide-Normal,Novecento wide" font-size="72.0" fill="#0042A9" transform="matrix(1.00, 0.00, -0.00, -1.00, 141.8, 10.8)">p</text><text xml:space="preserve" font-family="Novecentowide-Normal,Novecento wide" font-size="72.0" fill="#0042A9" transform="matrix(1.00, 0.00, -0.00, -1.00, 183.4, 10.8)">:</text><text xml:space="preserve" font-family="Novecentowide-Normal,Novecento wide" font-size="72.0" fill="#0042A9" transform="matrix(1.00, 0.00, -0.00, -1.00, 199.2, 10.8)">/</text><text xml:space="preserve" font-family="Novecentowide-Normal,Novecento wide" font-size="72.0" fill="#0042A9" transform="matrix(1.00, 0.00, -0.00, -1.00, 233.2, 10.8)">/</text><text xml:space="preserve" font-family="Novecentowide-Normal,Novecento wide" font-size="72.0" fill="#0042A9" transform="matrix(1.00, 0.00, -0.00, -1.00, 267.2, 10.8)">e</text><text xml:space="preserve" font-family="Novecentowide-Normal,Novecento wide" font-size="72.0" fill="#0042A9" transform="matrix(1.00, 0.00, -0.00, -1.00, 312.5, 10.8)">n</text><text xml:space="preserve" font-family="Novecentowide-Normal,Novecento wide" font-size="72.0" fill="#0042A9" transform="matrix(1.00, 0.00, -0.00, -1.00, 367.2, 10.8)">t</text><text xml:space="preserve" font-family="Novecentowide-Normal,Novecento wide" font-size="72.0" fill="#0042A9" transform="matrix(1.00, 0.00, -0.00, -1.00, 410.0, 10.8)">e</text><text xml:space="preserve" font-family="Novecentowide-Normal,Novecento wide" font-size="72.0" fill="#0042A9" transform="matrix(1.00, 0.00, -0.00, -1.00, 455.2, 10.8)">r</text><text xml:space="preserve" font-family="Novecentowide-Normal,Novecento wide" font-size="72.0" fill="#0042A9" transform="matrix(1.00, 0.00, -0.00, -1.00, 501.1, 10.8)">p</text><text xml:space="preserve" font-family="Novecentowide-Normal,Novecento wide" font-size="72.0" fill="#0042A9" transform="matrix(1.00, 0.00, -0.00, -1.00, 543.8, 10.8)">r</text><text xml:space="preserve" font-family="Novecentowide-Normal,Novecento wide" font-size="72.0" fill="#0042A9" transform="matrix(1.00, 0.00, -0.00, -1.00, 589.7, 10.8)">i</text><text xml:space="preserve" font-family="Novecentowide-Normal,Novecento wide" font-size="72.0" fill="#0042A9" transform="matrix(1.00, 0.00, -0.00, -1.00, 609.0, 10.8)">s</text><text xml:space="preserve" font-family="Novecentowide-Normal,Novecento wide" font-size="72.0" fill="#0042A9" transform="matrix(1.00, 0.00, -0.00, -1.00, 651.9, 10.8)">e</text><text xml:space="preserve" font-family="Novecentowide-Normal,Novecento wide" font-size="72.0" fill="#0042A9" transform="matrix(1.00, 0.00, -0.00, -1.00, 697.2, 10.8)">w</text><text xml:space="preserve" font-family="Novecentowide-Normal,Novecento wide" font-size="72.0" fill="#0042A9" transform="matrix(1.00, 0.00, -0.00, -1.00, 766.6, 10.8)">e</text><text xml:space="preserve" font-family="Novecentowide-Normal,Novecento wide" font-size="72.0" fill="#0042A9" transform="matrix(1.00, 0.00, -0.00, -1.00, 811.9, 10.8)">b</text><text xml:space="preserve" font-family="Novecentowide-Normal,Novecento wide" font-size="72.0" fill="#0042A9" transform="matrix(1.00, 0.00, -0.00, -1.00, 858.4, 10.8)">b</text><text xml:space="preserve" font-family="Novecentowide-Normal,Novecento wide" font-size="72.0" fill="#0042A9" transform="matrix(1.00, 0.00, -0.00, -1.00, 905.0, 10.8)">o</text><text xml:space="preserve" font-family="Novecentowide-Normal,Novecento wide" font-size="72.0" fill="#0042A9" transform="matrix(1.00, 0.00, -0.00, -1.00, 964.7, 10.8)">o</text><text xml:space="preserve" font-family="Novecentowide-Normal,Novecento wide" font-size="72.0" fill="#0042A9" transform="matrix(1.00, 0.00, -0.00, -1.00, 1022.7, 10.8)">k</text><text xml:space="preserve" font-family="Novecentowide-Normal,Novecento wide" font-size="72.0" fill="#0042A9" transform="matrix(1.00, 0.00, -0.00, -1.00, 1072.3, 10.8)">.</text><text xml:space="preserve" font-family="Novecentowide-Normal,Novecento wide" font-size="72.0" fill="#0042A9" transform="matrix(1.00, 0.00, -0.00, -1.00, 1083.7, 10.8)">c</text><text xml:space="preserve" font-family="Novecentowide-Normal,Novecento wide" font-size="72.0" fill="#0042A9" transform="matrix(1.00, 0.00, -0.00, -1.00, 1138.8, 10.8)">o</text><text xml:space="preserve" font-family="Novecentowide-Normal,Novecento wide" font-size="72.0" fill="#0042A9" transform="matrix(1.00, 0.00, -0.00, -1.00, 1196.8, 10.8)">m</text><g><clipPath id="clip0x600000ab8180"><path d="M -0.4 1.6 L 1256.8 1.6 L 1256.8 9.2 L -0.4 9.2 Z M -0.4 1.6 "></path></clipPath><g clip-path="url(#clip0x600000ab8180)"><path d="M 331.4 85.6 L 1587.6 85.6 " fill="none" stroke="#0042A9" stroke-width="5.54" transform="matrix(1.00, 0.00, 0.00, -1.00, -330.8, 91.0)"></path></g></g></g></svg>