<?xml version="1.0" encoding="UTF-8" standalone="no"?><svg xmlns="http://www.w3.org/2000/svg" xmlns:xlink="http://www.w3.org/1999/xlink" clip-rule="evenodd" stroke-miterlimit="10" viewBox="0 0 932 90"><desc>SVG generated by Keynote</desc><defs></defs><g transform="matrix(1.00, 0.00, -0.00, -1.00, 0.0, 90.0)"><text xml:space="preserve" font-family="ZapfDingbatsITC,Zapf Dingbats" font-size="90.0" fill="#FF2600" transform="matrix(1.00, 0.00, -0.00, -1.00, 0.0, 16.4)">★</text><text xml:space="preserve" font-family="Novecentowide-Normal,Novecento wide" font-size="72.0" fill="#000000" transform="matrix(1.00, 0.00, -0.00, -1.00, 73.4, 12.3)">p</text><text xml:space="preserve" font-family="Novecentowide-Normal,Novecento wide" font-size="72.0" fill="#000000" transform="matrix(1.00, 0.00, -0.00, -1.00, 116.1, 12.3)">r</text><text xml:space="preserve" font-family="Novecentowide-Normal,Novecento wide" font-size="72.0" fill="#000000" transform="matrix(1.00, 0.00, -0.00, -1.00, 160.3, 12.3)">o</text><text xml:space="preserve" font-family="Novecentowide-Normal,Novecento wide" font-size="72.0" fill="#000000" transform="matrix(1.00, 0.00, -0.00, -1.00, 218.2, 12.3)">f</text><text xml:space="preserve" font-family="Novecentowide-Normal,Novecento wide" font-size="72.0" fill="#000000" transform="matrix(1.00, 0.00, -0.00, -1.00, 260.3, 12.3)">e</text><text xml:space="preserve" font-family="Novecentowide-Normal,Novecento wide" font-size="72.0" fill="#000000" transform="matrix(1.00, 0.00, -0.00, -1.00, 303.6, 12.3)">s</text><text xml:space="preserve" font-family="Novecentowide-Normal,Novecento wide" font-size="72.0" fill="#000000" transform="matrix(1.00, 0.00, -0.00, -1.00, 346.5, 12.3)">s</text><text xml:space="preserve" font-family="Novecentowide-Normal,Novecento wide" font-size="72.0" fill="#000000" transform="matrix(1.00, 0.00, -0.00, -1.00, 389.4, 12.3)">i</text><text xml:space="preserve" font-family="Novecentowide-Normal,Novecento wide" font-size="72.0" fill="#000000" transform="matrix(1.00, 0.00, -0.00, -1.00, 408.3, 12.3)">o</text><text xml:space="preserve" font-family="Novecentowide-Normal,Novecento wide" font-size="72.0" fill="#000000" transform="matrix(1.00, 0.00, -0.00, -1.00, 466.3, 12.3)">n</text><text xml:space="preserve" font-family="Novecentowide-Normal,Novecento wide" font-size="72.0" fill="#000000" transform="matrix(1.00, 0.00, -0.00, -1.00, 520.2, 12.3)">a</text><text xml:space="preserve" font-family="Novecentowide-Normal,Novecento wide" font-size="72.0" fill="#000000" transform="matrix(1.00, 0.00, -0.00, -1.00, 571.2, 12.3)">l</text><text xml:space="preserve" font-family="Novecentowide-Normal,Novecento wide" font-size="72.0" fill="#000000" transform="matrix(1.00, 0.00, -0.00, -1.00, 612.2, 12.3)"> </text><text xml:space="preserve" font-family="Novecentowide-Normal,Novecento wide" font-size="72.0" fill="#000000" transform="matrix(1.00, 0.00, -0.00, -1.00, 630.2, 12.3)">R</text><text xml:space="preserve" font-family="Novecentowide-Normal,Novecento wide" font-size="72.0" fill="#000000" transform="matrix(1.00, 0.00, -0.00, -1.00, 675.1, 12.3)">u</text><text xml:space="preserve" font-family="Novecentowide-Normal,Novecento wide" font-size="72.0" fill="#000000" transform="matrix(1.00, 0.00, -0.00, -1.00, 727.1, 12.3)">s</text><text xml:space="preserve" font-family="Novecentowide-Normal,Novecento wide" font-size="72.0" fill="#000000" transform="matrix(1.00, 0.00, -0.00, -1.00, 770.0, 12.3)">s</text><text xml:space="preserve" font-family="Novecentowide-Normal,Novecento wide" font-size="72.0" fill="#000000" transform="matrix(1.00, 0.00, -0.00, -1.00, 812.9, 12.3)">i</text><text xml:space="preserve" font-family="Novecentowide-Normal,Novecento wide" font-size="72.0" fill="#000000" transform="matrix(1.00, 0.00, -0.00, -1.00, 831.4, 12.3)">a</text><text xml:space="preserve" font-family="Novecentowide-Normal,Novecento wide" font-size="72.0" fill="#000000" transform="matrix(1.00, 0.00, -0.00, -1.00, 882.4, 12.3)">n</text></g></svg>