<?xml version="1.0" encoding="UTF-8" standalone="no"?><svg xmlns="http://www.w3.org/2000/svg" xmlns:xlink="http://www.w3.org/1999/xlink" clip-rule="evenodd" stroke-miterlimit="10" viewBox="0 0 1172 66"><desc>SVG generated by Keynote</desc><defs></defs><g transform="matrix(1.00, 0.00, -0.00, -1.00, 0.0, 66.0)"><text xml:space="preserve" font-family="Novecentowide-Normal,Novecento wide" font-size="85.0" fill="#000000" transform="matrix(1.00, 0.00, -0.00, -1.00, -6.0, 3.3)">D</text><text xml:space="preserve" font-family="Novecentowide-Normal,Novecento wide" font-size="85.0" fill="#000000" transform="matrix(1.00, 0.00, -0.00, -1.00, 60.7, 3.3)">r</text><text xml:space="preserve" font-family="Novecentowide-Normal,Novecento wide" font-size="85.0" fill="#000000" transform="matrix(1.00, 0.00, -0.00, -1.00, 114.9, 3.3)">a</text><text xml:space="preserve" font-family="Novecentowide-Normal,Novecento wide" font-size="85.0" fill="#000000" transform="matrix(1.00, 0.00, -0.00, -1.00, 175.0, 3.3)">f</text><text xml:space="preserve" font-family="Novecentowide-Normal,Novecento wide" font-size="85.0" fill="#000000" transform="matrix(1.00, 0.00, -0.00, -1.00, 225.3, 3.3)">t</text><text xml:space="preserve" font-family="Novecentowide-Normal,Novecento wide" font-size="85.0" fill="#000000" transform="matrix(1.00, 0.00, -0.00, -1.00, 275.8, 3.3)"> </text><text xml:space="preserve" font-family="Novecentowide-Normal,Novecento wide" font-size="85.0" fill="#000000" transform="matrix(1.00, 0.00, -0.00, -1.00, 297.0, 3.3)">a</text><text xml:space="preserve" font-family="Novecentowide-Normal,Novecento wide" font-size="85.0" fill="#000000" transform="matrix(1.00, 0.00, -0.00, -1.00, 349.1, 3.3)">v</text><text xml:space="preserve" font-family="Novecentowide-Normal,Novecento wide" font-size="85.0" fill="#000000" transform="matrix(1.00, 0.00, -0.00, -1.00, 401.1, 3.3)">a</text><text xml:space="preserve" font-family="Novecentowide-Normal,Novecento wide" font-size="85.0" fill="#000000" transform="matrix(1.00, 0.00, -0.00, -1.00, 461.3, 3.3)">i</text><text xml:space="preserve" font-family="Novecentowide-Normal,Novecento wide" font-size="85.0" fill="#000000" transform="matrix(1.00, 0.00, -0.00, -1.00, 484.1, 3.3)">l</text><text xml:space="preserve" font-family="Novecentowide-Normal,Novecento wide" font-size="85.0" fill="#000000" transform="matrix(1.00, 0.00, -0.00, -1.00, 534.3, 3.3)">a</text><text xml:space="preserve" font-family="Novecentowide-Normal,Novecento wide" font-size="85.0" fill="#000000" transform="matrix(1.00, 0.00, -0.00, -1.00, 594.4, 3.3)">b</text><text xml:space="preserve" font-family="Novecentowide-Normal,Novecento wide" font-size="85.0" fill="#000000" transform="matrix(1.00, 0.00, -0.00, -1.00, 649.4, 3.3)">l</text><text xml:space="preserve" font-family="Novecentowide-Normal,Novecento wide" font-size="85.0" fill="#000000" transform="matrix(1.00, 0.00, -0.00, -1.00, 697.9, 3.3)">e</text><text xml:space="preserve" font-family="Novecentowide-Normal,Novecento wide" font-size="85.0" fill="#000000" transform="matrix(1.00, 0.00, -0.00, -1.00, 751.3, 3.3)"> </text><text xml:space="preserve" font-family="Novecentowide-Normal,Novecento wide" font-size="85.0" fill="#000000" transform="matrix(1.00, 0.00, -0.00, -1.00, 772.6, 3.3)">f</text><text xml:space="preserve" font-family="Novecentowide-Normal,Novecento wide" font-size="85.0" fill="#000000" transform="matrix(1.00, 0.00, -0.00, -1.00, 820.8, 3.3)">o</text><text xml:space="preserve" font-family="Novecentowide-Normal,Novecento wide" font-size="85.0" fill="#000000" transform="matrix(1.00, 0.00, -0.00, -1.00, 889.2, 3.3)">r</text><text xml:space="preserve" font-family="Novecentowide-Normal,Novecento wide" font-size="85.0" fill="#000000" transform="matrix(1.00, 0.00, -0.00, -1.00, 943.4, 3.3)"> </text><text xml:space="preserve" font-family="Novecentowide-Normal,Novecento wide" font-size="85.0" fill="#000000" transform="matrix(1.00, 0.00, -0.00, -1.00, 964.6, 3.3)">f</text><text xml:space="preserve" font-family="Novecentowide-Normal,Novecento wide" font-size="85.0" fill="#000000" transform="matrix(1.00, 0.00, -0.00, -1.00, 1014.3, 3.3)">r</text><text xml:space="preserve" font-family="Novecentowide-Normal,Novecento wide" font-size="85.0" fill="#000000" transform="matrix(1.00, 0.00, -0.00, -1.00, 1068.4, 3.3)">e</text><text xml:space="preserve" font-family="Novecentowide-Normal,Novecento wide" font-size="85.0" fill="#000000" transform="matrix(1.00, 0.00, -0.00, -1.00, 1121.9, 3.3)">e</text></g></svg>