<?xml version="1.0" encoding="UTF-8" standalone="no"?><svg xmlns="http://www.w3.org/2000/svg" xmlns:xlink="http://www.w3.org/1999/xlink" clip-rule="evenodd" stroke-miterlimit="10" viewBox="0 0 933 74"><desc>SVG generated by Keynote</desc><defs></defs><g transform="matrix(1.00, 0.00, -0.00, -1.00, 0.0, 74.0)"><text xml:space="preserve" font-family="Novecentowide-Normal,Novecento wide" font-size="97.4" fill="#000000" transform="matrix(1.00, 0.00, -0.00, -1.00, -7.5, 2.6)">M</text><text xml:space="preserve" font-family="Novecentowide-Normal,Novecento wide" font-size="97.4" fill="#000000" transform="matrix(1.00, 0.00, -0.00, -1.00, 72.6, 2.6)">A</text><text xml:space="preserve" font-family="Novecentowide-Normal,Novecento wide" font-size="97.4" fill="#000000" transform="matrix(1.00, 0.00, -0.00, -1.00, 141.6, 2.6)">N</text><text xml:space="preserve" font-family="Novecentowide-Normal,Novecento wide" font-size="97.4" fill="#000000" transform="matrix(1.00, 0.00, -0.00, -1.00, 214.7, 2.6)">Y</text><text xml:space="preserve" font-family="Novecentowide-Normal,Novecento wide" font-size="97.4" fill="#000000" transform="matrix(1.00, 0.00, -0.00, -1.00, 278.6, 2.6)"> </text><text xml:space="preserve" font-family="Novecentowide-Normal,Novecento wide" font-size="97.4" fill="#000000" transform="matrix(1.00, 0.00, -0.00, -1.00, 303.0, 2.6)">g</text><text xml:space="preserve" font-family="Novecentowide-Normal,Novecento wide" font-size="97.4" fill="#000000" transform="matrix(1.00, 0.00, -0.00, -1.00, 380.4, 2.6)">o</text><text xml:space="preserve" font-family="Novecentowide-Normal,Novecento wide" font-size="97.4" fill="#000000" transform="matrix(1.00, 0.00, -0.00, -1.00, 461.2, 2.6)">o</text><text xml:space="preserve" font-family="Novecentowide-Normal,Novecento wide" font-size="97.4" fill="#000000" transform="matrix(1.00, 0.00, -0.00, -1.00, 539.7, 2.6)">d</text><text xml:space="preserve" font-family="Novecentowide-Normal,Novecento wide" font-size="97.4" fill="#000000" transform="matrix(1.00, 0.00, -0.00, -1.00, 617.0, 2.6)"> </text><text xml:space="preserve" font-family="Novecentowide-Normal,Novecento wide" font-size="97.4" fill="#000000" transform="matrix(1.00, 0.00, -0.00, -1.00, 641.4, 2.6)">P</text><text xml:space="preserve" font-family="Novecentowide-Normal,Novecento wide" font-size="97.4" fill="#000000" transform="matrix(1.00, 0.00, -0.00, -1.00, 691.2, 2.6)">a</text><text xml:space="preserve" font-family="Novecentowide-Normal,Novecento wide" font-size="97.4" fill="#000000" transform="matrix(1.00, 0.00, -0.00, -1.00, 760.2, 2.6)">r</text><text xml:space="preserve" font-family="Novecentowide-Normal,Novecento wide" font-size="97.4" fill="#000000" transform="matrix(1.00, 0.00, -0.00, -1.00, 821.0, 2.6)">t</text><text xml:space="preserve" font-family="Novecentowide-Normal,Novecento wide" font-size="97.4" fill="#000000" transform="matrix(1.00, 0.00, -0.00, -1.00, 877.4, 2.6)">s</text></g></svg>