<?xml version="1.0" encoding="UTF-8" standalone="no"?><svg xmlns="http://www.w3.org/2000/svg" xmlns:xlink="http://www.w3.org/1999/xlink" clip-rule="evenodd" stroke-miterlimit="10" viewBox="0 0 1599 63"><desc>SVG generated by Keynote</desc><defs></defs><g transform="matrix(1.00, 0.00, -0.00, -1.00, 0.0, 63.0)"><text xml:space="preserve" font-family="Novecentowide-Normal,Novecento wide" font-size="81.8" fill="#000000" transform="matrix(1.00, 0.00, -0.00, -1.00, 0.3, 3.3)">j</text><text xml:space="preserve" font-family="Novecentowide-Normal,Novecento wide" font-size="81.8" fill="#000000" transform="matrix(1.00, 0.00, -0.00, -1.00, 50.0, 3.3)">a</text><text xml:space="preserve" font-family="Novecentowide-Normal,Novecento wide" font-size="81.8" fill="#000000" transform="matrix(1.00, 0.00, -0.00, -1.00, 100.1, 3.3)">v</text><text xml:space="preserve" font-family="Novecentowide-Normal,Novecento wide" font-size="81.8" fill="#000000" transform="matrix(1.00, 0.00, -0.00, -1.00, 150.1, 3.3)">a</text><text xml:space="preserve" font-family="Novecentowide-Normal,Novecento wide" font-size="81.8" fill="#000000" transform="matrix(1.00, 0.00, -0.00, -1.00, 208.9, 3.3)"> </text><text xml:space="preserve" font-family="Novecentowide-Normal,Novecento wide" font-size="81.8" fill="#000000" transform="matrix(1.00, 0.00, -0.00, -1.00, 229.3, 3.3)">d</text><text xml:space="preserve" font-family="Novecentowide-Normal,Novecento wide" font-size="81.8" fill="#000000" transform="matrix(1.00, 0.00, -0.00, -1.00, 293.5, 3.3)">e</text><text xml:space="preserve" font-family="Novecentowide-Normal,Novecento wide" font-size="81.8" fill="#000000" transform="matrix(1.00, 0.00, -0.00, -1.00, 345.0, 3.3)">v</text><text xml:space="preserve" font-family="Novecentowide-Normal,Novecento wide" font-size="81.8" fill="#000000" transform="matrix(1.00, 0.00, -0.00, -1.00, 403.7, 3.3)"> </text><text xml:space="preserve" font-family="Novecentowide-Normal,Novecento wide" font-size="81.8" fill="#000000" transform="matrix(1.00, 0.00, -0.00, -1.00, 424.1, 3.3)">k</text><text xml:space="preserve" font-family="Novecentowide-Normal,Novecento wide" font-size="81.8" fill="#000000" transform="matrix(1.00, 0.00, -0.00, -1.00, 480.4, 3.3)">n</text><text xml:space="preserve" font-family="Novecentowide-Normal,Novecento wide" font-size="81.8" fill="#000000" transform="matrix(1.00, 0.00, -0.00, -1.00, 542.1, 3.3)">o</text><text xml:space="preserve" font-family="Novecentowide-Normal,Novecento wide" font-size="81.8" fill="#000000" transform="matrix(1.00, 0.00, -0.00, -1.00, 605.4, 3.3)">w</text><text xml:space="preserve" font-family="Novecentowide-Normal,Novecento wide" font-size="81.8" fill="#000000" transform="matrix(1.00, 0.00, -0.00, -1.00, 684.7, 3.3)">s</text><text xml:space="preserve" font-family="Novecentowide-Normal,Novecento wide" font-size="81.8" fill="#000000" transform="matrix(1.00, 0.00, -0.00, -1.00, 733.5, 3.3)"> </text><text xml:space="preserve" font-family="Novecentowide-Normal,Novecento wide" font-size="81.8" fill="#000000" transform="matrix(1.00, 0.00, -0.00, -1.00, 753.9, 3.3)">h</text><text xml:space="preserve" font-family="Novecentowide-Normal,Novecento wide" font-size="81.8" fill="#000000" transform="matrix(1.00, 0.00, -0.00, -1.00, 813.4, 3.3)">o</text><text xml:space="preserve" font-family="Novecentowide-Normal,Novecento wide" font-size="81.8" fill="#000000" transform="matrix(1.00, 0.00, -0.00, -1.00, 876.6, 3.3)">w</text><text xml:space="preserve" font-family="Novecentowide-Normal,Novecento wide" font-size="81.8" fill="#000000" transform="matrix(1.00, 0.00, -0.00, -1.00, 956.8, 3.3)"> </text><text xml:space="preserve" font-family="Novecentowide-Normal,Novecento wide" font-size="81.8" fill="#000000" transform="matrix(1.00, 0.00, -0.00, -1.00, 977.2, 3.3)">t</text><text xml:space="preserve" font-family="Novecentowide-Normal,Novecento wide" font-size="81.8" fill="#000000" transform="matrix(1.00, 0.00, -0.00, -1.00, 1023.3, 3.3)">o</text><text xml:space="preserve" font-family="Novecentowide-Normal,Novecento wide" font-size="81.8" fill="#000000" transform="matrix(1.00, 0.00, -0.00, -1.00, 1089.9, 3.3)"> </text><text xml:space="preserve" font-family="Novecentowide-Normal,Novecento wide" font-size="81.8" fill="#000000" transform="matrix(1.00, 0.00, -0.00, -1.00, 1110.3, 3.3)">j</text><text xml:space="preserve" font-family="Novecentowide-Normal,Novecento wide" font-size="81.8" fill="#000000" transform="matrix(1.00, 0.00, -0.00, -1.00, 1160.0, 3.3)">a</text><text xml:space="preserve" font-family="Novecentowide-Normal,Novecento wide" font-size="81.8" fill="#000000" transform="matrix(1.00, 0.00, -0.00, -1.00, 1210.1, 3.3)">v</text><text xml:space="preserve" font-family="Novecentowide-Normal,Novecento wide" font-size="81.8" fill="#000000" transform="matrix(1.00, 0.00, -0.00, -1.00, 1260.2, 3.3)">a</text><text xml:space="preserve" font-family="Novecentowide-Normal,Novecento wide" font-size="81.8" fill="#000000" transform="matrix(1.00, 0.00, -0.00, -1.00, 1317.2, 3.3)">s</text><text xml:space="preserve" font-family="Novecentowide-Normal,Novecento wide" font-size="81.8" fill="#000000" transform="matrix(1.00, 0.00, -0.00, -1.00, 1365.9, 3.3)">c</text><text xml:space="preserve" font-family="Novecentowide-Normal,Novecento wide" font-size="81.8" fill="#000000" transform="matrix(1.00, 0.00, -0.00, -1.00, 1427.3, 3.3)">r</text><text xml:space="preserve" font-family="Novecentowide-Normal,Novecento wide" font-size="81.8" fill="#000000" transform="matrix(1.00, 0.00, -0.00, -1.00, 1479.4, 3.3)">i</text><text xml:space="preserve" font-family="Novecentowide-Normal,Novecento wide" font-size="81.8" fill="#000000" transform="matrix(1.00, 0.00, -0.00, -1.00, 1501.3, 3.3)">p</text><text xml:space="preserve" font-family="Novecentowide-Normal,Novecento wide" font-size="81.8" fill="#000000" transform="matrix(1.00, 0.00, -0.00, -1.00, 1550.2, 3.3)">t</text></g></svg>