<?xml version="1.0" encoding="UTF-8" standalone="no"?><svg xmlns="http://www.w3.org/2000/svg" xmlns:xlink="http://www.w3.org/1999/xlink" clip-rule="evenodd" stroke-miterlimit="10" viewBox="0 0 1088 262"><desc>SVG generated by Keynote</desc><defs></defs><g transform="matrix(1.00, 0.00, -0.00, -1.00, 0.0, 262.0)"><text xml:space="preserve" font-family="Novecentowide-Light,Novecento wide" font-size="134.0" fill="#000000" transform="matrix(1.00, 0.00, -0.00, -1.00, 145.7, 165.1)">S</text><text xml:space="preserve" font-family="Novecentowide-Light,Novecento wide" font-size="134.0" fill="#000000" transform="matrix(1.00, 0.00, -0.00, -1.00, 220.5, 165.1)">t</text><text xml:space="preserve" font-family="Novecentowide-Light,Novecento wide" font-size="134.0" fill="#000000" transform="matrix(1.00, 0.00, -0.00, -1.00, 293.5, 165.1)">o</text><text xml:space="preserve" font-family="Novecentowide-Light,Novecento wide" font-size="134.0" fill="#000000" transform="matrix(1.00, 0.00, -0.00, -1.00, 402.4, 165.1)">r</text><text xml:space="preserve" font-family="Novecentowide-Light,Novecento wide" font-size="134.0" fill="#000000" transform="matrix(1.00, 0.00, -0.00, -1.00, 479.5, 165.1)">y</text><text xml:space="preserve" font-family="Novecentowide-Light,Novecento wide" font-size="134.0" fill="#000000" transform="matrix(1.00, 0.00, -0.00, -1.00, 562.8, 165.1)"> </text><text xml:space="preserve" font-family="Novecentowide-Light,Novecento wide" font-size="134.0" fill="#000000" transform="matrix(1.00, 0.00, -0.00, -1.00, 596.3, 165.1)">t</text><text xml:space="preserve" font-family="Novecentowide-Light,Novecento wide" font-size="134.0" fill="#000000" transform="matrix(1.00, 0.00, -0.00, -1.00, 677.4, 165.1)">w</text><text xml:space="preserve" font-family="Novecentowide-Light,Novecento wide" font-size="134.0" fill="#000000" transform="matrix(1.00, 0.00, -0.00, -1.00, 798.6, 165.1)">o</text><text xml:space="preserve" font-family="Novecentowide-Light,Novecento wide" font-size="134.0" fill="#000000" transform="matrix(1.00, 0.00, -0.00, -1.00, 908.8, 165.1)">:</text><text xml:space="preserve" font-family="Novecentowide-Light,Novecento wide" font-size="134.0" fill="#000000" transform="matrix(1.00, 0.00, -0.00, -1.00, 934.3, 165.1)"> </text><text xml:space="preserve" font-family="Novecentowide-Light,Novecento wide" font-size="134.0" fill="#000000" transform="matrix(1.00, 0.00, -0.00, -1.00, 967.8, 165.1)"> </text><text xml:space="preserve" font-family="Novecentowide-Light,Novecento wide" font-size="134.0" fill="#000000" transform="matrix(1.00, 0.00, -0.00, -1.00, -11.8, 4.1)">F</text><text xml:space="preserve" font-family="Novecentowide-Light,Novecento wide" font-size="134.0" fill="#000000" transform="matrix(1.00, 0.00, -0.00, -1.00, 51.3, 4.1)">A</text><text xml:space="preserve" font-family="Novecentowide-Light,Novecento wide" font-size="134.0" fill="#000000" transform="matrix(1.00, 0.00, -0.00, -1.00, 146.7, 4.1)">M</text><text xml:space="preserve" font-family="Novecentowide-Light,Novecento wide" font-size="134.0" fill="#000000" transform="matrix(1.00, 0.00, -0.00, -1.00, 256.9, 4.1)">I</text><text xml:space="preserve" font-family="Novecentowide-Light,Novecento wide" font-size="134.0" fill="#000000" transform="matrix(1.00, 0.00, -0.00, -1.00, 289.0, 4.1)">L</text><text xml:space="preserve" font-family="Novecentowide-Light,Novecento wide" font-size="134.0" fill="#000000" transform="matrix(1.00, 0.00, -0.00, -1.00, 347.4, 4.1)">Y</text><text xml:space="preserve" font-family="Novecentowide-Light,Novecento wide" font-size="134.0" fill="#000000" transform="matrix(1.00, 0.00, -0.00, -1.00, 430.8, 4.1)"> </text><text xml:space="preserve" font-family="Novecentowide-Light,Novecento wide" font-size="134.0" fill="#000000" transform="matrix(1.00, 0.00, -0.00, -1.00, 464.3, 4.1)">B</text><text xml:space="preserve" font-family="Novecentowide-Light,Novecento wide" font-size="134.0" fill="#000000" transform="matrix(1.00, 0.00, -0.00, -1.00, 550.0, 4.1)">U</text><text xml:space="preserve" font-family="Novecentowide-Light,Novecento wide" font-size="134.0" fill="#000000" transform="matrix(1.00, 0.00, -0.00, -1.00, 645.2, 4.1)">S</text><text xml:space="preserve" font-family="Novecentowide-Light,Novecento wide" font-size="134.0" fill="#000000" transform="matrix(1.00, 0.00, -0.00, -1.00, 723.7, 4.1)">I</text><text xml:space="preserve" font-family="Novecentowide-Light,Novecento wide" font-size="134.0" fill="#000000" transform="matrix(1.00, 0.00, -0.00, -1.00, 755.9, 4.1)">N</text><text xml:space="preserve" font-family="Novecentowide-Light,Novecento wide" font-size="134.0" fill="#000000" transform="matrix(1.00, 0.00, -0.00, -1.00, 856.1, 4.1)">E</text><text xml:space="preserve" font-family="Novecentowide-Light,Novecento wide" font-size="134.0" fill="#000000" transform="matrix(1.00, 0.00, -0.00, -1.00, 934.8, 4.1)">S</text><text xml:space="preserve" font-family="Novecentowide-Light,Novecento wide" font-size="134.0" fill="#000000" transform="matrix(1.00, 0.00, -0.00, -1.00, 1013.3, 4.1)">S</text></g></svg>