<?xml version="1.0" encoding="UTF-8" standalone="no"?><svg xmlns="http://www.w3.org/2000/svg" xmlns:xlink="http://www.w3.org/1999/xlink" clip-rule="evenodd" stroke-miterlimit="10" viewBox="0 0 778 100"><desc>SVG generated by Keynote</desc><defs></defs><g transform="matrix(1.00, 0.00, -0.00, -1.00, 0.0, 100.0)"><text xml:space="preserve" font-family="Novecentowide-Light,Novecento wide" font-size="134.0" fill="#000000" transform="matrix(1.00, 0.00, -0.00, -1.00, -4.3, 3.1)">S</text><text xml:space="preserve" font-family="Novecentowide-Light,Novecento wide" font-size="134.0" fill="#000000" transform="matrix(1.00, 0.00, -0.00, -1.00, 70.5, 3.1)">t</text><text xml:space="preserve" font-family="Novecentowide-Light,Novecento wide" font-size="134.0" fill="#000000" transform="matrix(1.00, 0.00, -0.00, -1.00, 143.5, 3.1)">o</text><text xml:space="preserve" font-family="Novecentowide-Light,Novecento wide" font-size="134.0" fill="#000000" transform="matrix(1.00, 0.00, -0.00, -1.00, 252.4, 3.1)">r</text><text xml:space="preserve" font-family="Novecentowide-Light,Novecento wide" font-size="134.0" fill="#000000" transform="matrix(1.00, 0.00, -0.00, -1.00, 329.5, 3.1)">y</text><text xml:space="preserve" font-family="Novecentowide-Light,Novecento wide" font-size="134.0" fill="#000000" transform="matrix(1.00, 0.00, -0.00, -1.00, 412.8, 3.1)"> </text><text xml:space="preserve" font-family="Novecentowide-Light,Novecento wide" font-size="134.0" fill="#000000" transform="matrix(1.00, 0.00, -0.00, -1.00, 446.3, 3.1)">t</text><text xml:space="preserve" font-family="Novecentowide-Light,Novecento wide" font-size="134.0" fill="#000000" transform="matrix(1.00, 0.00, -0.00, -1.00, 527.4, 3.1)">w</text><text xml:space="preserve" font-family="Novecentowide-Light,Novecento wide" font-size="134.0" fill="#000000" transform="matrix(1.00, 0.00, -0.00, -1.00, 648.6, 3.1)">o</text><text xml:space="preserve" font-family="Novecentowide-Light,Novecento wide" font-size="134.0" fill="#000000" transform="matrix(1.00, 0.00, -0.00, -1.00, 758.8, 3.1)">:</text></g></svg>