<?xml version="1.0" encoding="UTF-8" standalone="no"?><svg xmlns="http://www.w3.org/2000/svg" xmlns:xlink="http://www.w3.org/1999/xlink" clip-rule="evenodd" stroke-miterlimit="10" viewBox="0 0 1580 84"><desc>SVG generated by Keynote</desc><defs></defs><g transform="matrix(1.00, 0.00, -0.00, -1.00, 0.0, 84.0)"><text xml:space="preserve" font-family="Novecentowide-Normal,Novecento wide" font-size="112.0" fill="#000000" transform="matrix(1.00, 0.00, -0.00, -1.00, 0.3, 2.8)">J</text><text xml:space="preserve" font-family="Novecentowide-Normal,Novecento wide" font-size="112.0" fill="#000000" transform="matrix(1.00, 0.00, -0.00, -1.00, 68.4, 2.8)">A</text><text xml:space="preserve" font-family="Novecentowide-Normal,Novecento wide" font-size="112.0" fill="#000000" transform="matrix(1.00, 0.00, -0.00, -1.00, 137.0, 2.8)">V</text><text xml:space="preserve" font-family="Novecentowide-Normal,Novecento wide" font-size="112.0" fill="#000000" transform="matrix(1.00, 0.00, -0.00, -1.00, 205.6, 2.8)">A</text><text xml:space="preserve" font-family="Novecentowide-Normal,Novecento wide" font-size="112.0" fill="#000000" transform="matrix(1.00, 0.00, -0.00, -1.00, 283.6, 2.8)">S</text><text xml:space="preserve" font-family="Novecentowide-Normal,Novecento wide" font-size="112.0" fill="#000000" transform="matrix(1.00, 0.00, -0.00, -1.00, 350.4, 2.8)">c</text><text xml:space="preserve" font-family="Novecentowide-Normal,Novecento wide" font-size="112.0" fill="#000000" transform="matrix(1.00, 0.00, -0.00, -1.00, 434.5, 2.8)">r</text><text xml:space="preserve" font-family="Novecentowide-Normal,Novecento wide" font-size="112.0" fill="#000000" transform="matrix(1.00, 0.00, -0.00, -1.00, 505.8, 2.8)">i</text><text xml:space="preserve" font-family="Novecentowide-Normal,Novecento wide" font-size="112.0" fill="#000000" transform="matrix(1.00, 0.00, -0.00, -1.00, 535.8, 2.8)">p</text><text xml:space="preserve" font-family="Novecentowide-Normal,Novecento wide" font-size="112.0" fill="#000000" transform="matrix(1.00, 0.00, -0.00, -1.00, 602.8, 2.8)">t</text><text xml:space="preserve" font-family="Novecentowide-Normal,Novecento wide" font-size="112.0" fill="#000000" transform="matrix(1.00, 0.00, -0.00, -1.00, 669.3, 2.8)"> </text><text xml:space="preserve" font-family="Novecentowide-Normal,Novecento wide" font-size="112.0" fill="#000000" transform="matrix(1.00, 0.00, -0.00, -1.00, 697.3, 2.8)">i</text><text xml:space="preserve" font-family="Novecentowide-Normal,Novecento wide" font-size="112.0" fill="#000000" transform="matrix(1.00, 0.00, -0.00, -1.00, 727.4, 2.8)">s</text><text xml:space="preserve" font-family="Novecentowide-Normal,Novecento wide" font-size="112.0" fill="#000000" transform="matrix(1.00, 0.00, -0.00, -1.00, 794.1, 2.8)"> </text><text xml:space="preserve" font-family="Novecentowide-Normal,Novecento wide" font-size="112.0" fill="#000000" transform="matrix(1.00, 0.00, -0.00, -1.00, 822.1, 2.8)">e</text><text xml:space="preserve" font-family="Novecentowide-Normal,Novecento wide" font-size="112.0" fill="#000000" transform="matrix(1.00, 0.00, -0.00, -1.00, 892.6, 2.8)">v</text><text xml:space="preserve" font-family="Novecentowide-Normal,Novecento wide" font-size="112.0" fill="#000000" transform="matrix(1.00, 0.00, -0.00, -1.00, 971.2, 2.8)">e</text><text xml:space="preserve" font-family="Novecentowide-Normal,Novecento wide" font-size="112.0" fill="#000000" transform="matrix(1.00, 0.00, -0.00, -1.00, 1041.6, 2.8)">r</text><text xml:space="preserve" font-family="Novecentowide-Normal,Novecento wide" font-size="112.0" fill="#000000" transform="matrix(1.00, 0.00, -0.00, -1.00, 1108.5, 2.8)">y</text><text xml:space="preserve" font-family="Novecentowide-Normal,Novecento wide" font-size="112.0" fill="#000000" transform="matrix(1.00, 0.00, -0.00, -1.00, 1182.8, 2.8)">w</text><text xml:space="preserve" font-family="Novecentowide-Normal,Novecento wide" font-size="112.0" fill="#000000" transform="matrix(1.00, 0.00, -0.00, -1.00, 1290.7, 2.8)">h</text><text xml:space="preserve" font-family="Novecentowide-Normal,Novecento wide" font-size="112.0" fill="#000000" transform="matrix(1.00, 0.00, -0.00, -1.00, 1372.8, 2.8)">e</text><text xml:space="preserve" font-family="Novecentowide-Normal,Novecento wide" font-size="112.0" fill="#000000" transform="matrix(1.00, 0.00, -0.00, -1.00, 1443.3, 2.8)">r</text><text xml:space="preserve" font-family="Novecentowide-Normal,Novecento wide" font-size="112.0" fill="#000000" transform="matrix(1.00, 0.00, -0.00, -1.00, 1514.6, 2.8)">e</text></g></svg>