<?xml version="1.0" encoding="UTF-8" standalone="no"?><svg xmlns="http://www.w3.org/2000/svg" xmlns:xlink="http://www.w3.org/1999/xlink" clip-rule="evenodd" stroke-miterlimit="10" viewBox="0 0 912 90"><desc>SVG generated by Keynote</desc><defs></defs><g transform="matrix(1.00, 0.00, -0.00, -1.00, 0.0, 90.0)"><text xml:space="preserve" font-family="ZapfDingbatsITC,Zapf Dingbats" font-size="90.0" fill="#FF2600" transform="matrix(1.00, 0.00, -0.00, -1.00, 0.2, 16.4)">★</text><text xml:space="preserve" font-family="Novecentowide-Normal,Novecento wide" font-size="72.0" fill="#000000" transform="matrix(1.00, 0.00, -0.00, -1.00, 73.6, 12.3)">H</text><text xml:space="preserve" font-family="Novecentowide-Normal,Novecento wide" font-size="72.0" fill="#000000" transform="matrix(1.00, 0.00, -0.00, -1.00, 126.4, 12.3)">e</text><text xml:space="preserve" font-family="Novecentowide-Normal,Novecento wide" font-size="72.0" fill="#000000" transform="matrix(1.00, 0.00, -0.00, -1.00, 171.7, 12.3)">r</text><text xml:space="preserve" font-family="Novecentowide-Normal,Novecento wide" font-size="72.0" fill="#000000" transform="matrix(1.00, 0.00, -0.00, -1.00, 217.5, 12.3)">e</text><text xml:space="preserve" font-family="Novecentowide-Normal,Novecento wide" font-size="72.0" fill="#000000" transform="matrix(1.00, 0.00, -0.00, -1.00, 262.8, 12.3)"> </text><text xml:space="preserve" font-family="Novecentowide-Normal,Novecento wide" font-size="72.0" fill="#000000" transform="matrix(1.00, 0.00, -0.00, -1.00, 280.8, 12.3)">c</text><text xml:space="preserve" font-family="Novecentowide-Normal,Novecento wide" font-size="72.0" fill="#000000" transform="matrix(1.00, 0.00, -0.00, -1.00, 335.9, 12.3)">o</text><text xml:space="preserve" font-family="Novecentowide-Normal,Novecento wide" font-size="72.0" fill="#000000" transform="matrix(1.00, 0.00, -0.00, -1.00, 393.8, 12.3)">m</text><text xml:space="preserve" font-family="Novecentowide-Normal,Novecento wide" font-size="72.0" fill="#000000" transform="matrix(1.00, 0.00, -0.00, -1.00, 453.8, 12.3)">e</text><text xml:space="preserve" font-family="Novecentowide-Normal,Novecento wide" font-size="72.0" fill="#000000" transform="matrix(1.00, 0.00, -0.00, -1.00, 497.2, 12.3)">s</text><text xml:space="preserve" font-family="Novecentowide-Normal,Novecento wide" font-size="72.0" fill="#000000" transform="matrix(1.00, 0.00, -0.00, -1.00, 540.1, 12.3)"> </text><text xml:space="preserve" font-family="Novecentowide-Normal,Novecento wide" font-size="72.0" fill="#000000" transform="matrix(1.00, 0.00, -0.00, -1.00, 558.1, 12.3)">n</text><text xml:space="preserve" font-family="Novecentowide-Normal,Novecento wide" font-size="72.0" fill="#000000" transform="matrix(1.00, 0.00, -0.00, -1.00, 612.0, 12.3)">a</text><text xml:space="preserve" font-family="Novecentowide-Normal,Novecento wide" font-size="72.0" fill="#000000" transform="matrix(1.00, 0.00, -0.00, -1.00, 662.2, 12.3)">s</text><text xml:space="preserve" font-family="Novecentowide-Normal,Novecento wide" font-size="72.0" fill="#000000" transform="matrix(1.00, 0.00, -0.00, -1.00, 705.1, 12.3)">h</text><text xml:space="preserve" font-family="Novecentowide-Normal,Novecento wide" font-size="72.0" fill="#000000" transform="matrix(1.00, 0.00, -0.00, -1.00, 757.4, 12.3)">o</text><text xml:space="preserve" font-family="Novecentowide-Normal,Novecento wide" font-size="72.0" fill="#000000" transform="matrix(1.00, 0.00, -0.00, -1.00, 815.4, 12.3)">r</text><text xml:space="preserve" font-family="Novecentowide-Normal,Novecento wide" font-size="72.0" fill="#000000" transform="matrix(1.00, 0.00, -0.00, -1.00, 861.3, 12.3)">n</text></g></svg>