<?xml version="1.0" encoding="UTF-8" standalone="no"?><svg xmlns="http://www.w3.org/2000/svg" xmlns:xlink="http://www.w3.org/1999/xlink" clip-rule="evenodd" stroke-miterlimit="10" viewBox="0 0 1287 424"><desc>SVG generated by Keynote</desc><defs></defs><g transform="matrix(1.00, 0.00, -0.00, -1.00, 0.0, 424.0)"><text xml:space="preserve" font-family="Novecentowide-Light,Novecento wide" font-size="134.0" fill="#000000" transform="matrix(1.00, 0.00, -0.00, -1.00, 260.4, 326.6)">S</text><text xml:space="preserve" font-family="Novecentowide-Light,Novecento wide" font-size="134.0" fill="#000000" transform="matrix(1.00, 0.00, -0.00, -1.00, 335.1, 326.6)">t</text><text xml:space="preserve" font-family="Novecentowide-Light,Novecento wide" font-size="134.0" fill="#000000" transform="matrix(1.00, 0.00, -0.00, -1.00, 408.2, 326.6)">o</text><text xml:space="preserve" font-family="Novecentowide-Light,Novecento wide" font-size="134.0" fill="#000000" transform="matrix(1.00, 0.00, -0.00, -1.00, 517.1, 326.6)">r</text><text xml:space="preserve" font-family="Novecentowide-Light,Novecento wide" font-size="134.0" fill="#000000" transform="matrix(1.00, 0.00, -0.00, -1.00, 594.2, 326.6)">y</text><text xml:space="preserve" font-family="Novecentowide-Light,Novecento wide" font-size="134.0" fill="#000000" transform="matrix(1.00, 0.00, -0.00, -1.00, 677.5, 326.6)"> </text><text xml:space="preserve" font-family="Novecentowide-Light,Novecento wide" font-size="134.0" fill="#000000" transform="matrix(1.00, 0.00, -0.00, -1.00, 711.0, 326.6)">o</text><text xml:space="preserve" font-family="Novecentowide-Light,Novecento wide" font-size="134.0" fill="#000000" transform="matrix(1.00, 0.00, -0.00, -1.00, 819.9, 326.6)">n</text><text xml:space="preserve" font-family="Novecentowide-Light,Novecento wide" font-size="134.0" fill="#000000" transform="matrix(1.00, 0.00, -0.00, -1.00, 920.2, 326.6)">e</text><text xml:space="preserve" font-family="Novecentowide-Light,Novecento wide" font-size="134.0" fill="#000000" transform="matrix(1.00, 0.00, -0.00, -1.00, 1002.2, 326.6)">:</text><text xml:space="preserve" font-family="Novecentowide-Light,Novecento wide" font-size="134.0" fill="#000000" transform="matrix(1.00, 0.00, -0.00, -1.00, 1027.6, 326.6)"> </text><text xml:space="preserve" font-family="Novecentowide-Light,Novecento wide" font-size="134.0" fill="#000000" transform="matrix(1.00, 0.00, -0.00, -1.00, 325.3, 165.6)">t</text><text xml:space="preserve" font-family="Novecentowide-Light,Novecento wide" font-size="134.0" fill="#000000" transform="matrix(1.00, 0.00, -0.00, -1.00, 403.7, 165.6)">h</text><text xml:space="preserve" font-family="Novecentowide-Light,Novecento wide" font-size="134.0" fill="#000000" transform="matrix(1.00, 0.00, -0.00, -1.00, 500.5, 165.6)">e</text><text xml:space="preserve" font-family="Novecentowide-Light,Novecento wide" font-size="134.0" fill="#000000" transform="matrix(1.00, 0.00, -0.00, -1.00, 582.5, 165.6)"> </text><text xml:space="preserve" font-family="Novecentowide-Light,Novecento wide" font-size="134.0" fill="#000000" transform="matrix(1.00, 0.00, -0.00, -1.00, 616.0, 165.6)">l</text><text xml:space="preserve" font-family="Novecentowide-Light,Novecento wide" font-size="134.0" fill="#000000" transform="matrix(1.00, 0.00, -0.00, -1.00, 693.3, 165.6)">a</text><text xml:space="preserve" font-family="Novecentowide-Light,Novecento wide" font-size="134.0" fill="#000000" transform="matrix(1.00, 0.00, -0.00, -1.00, 788.3, 165.6)">z</text><text xml:space="preserve" font-family="Novecentowide-Light,Novecento wide" font-size="134.0" fill="#000000" transform="matrix(1.00, 0.00, -0.00, -1.00, 879.3, 165.6)">y</text><text xml:space="preserve" font-family="Novecentowide-Light,Novecento wide" font-size="134.0" fill="#000000" transform="matrix(1.00, 0.00, -0.00, -1.00, 962.7, 165.6)"> </text><text xml:space="preserve" font-family="Novecentowide-Light,Novecento wide" font-size="134.0" fill="#000000" transform="matrix(1.00, 0.00, -0.00, -1.00, 996.2, 165.6)"> </text><text xml:space="preserve" font-family="Novecentowide-Light,Novecento wide" font-size="134.0" fill="#000000" transform="matrix(1.00, 0.00, -0.00, -1.00, -3.8, 4.6)">s</text><text xml:space="preserve" font-family="Novecentowide-Light,Novecento wide" font-size="134.0" fill="#000000" transform="matrix(1.00, 0.00, -0.00, -1.00, 74.7, 4.6)">u</text><text xml:space="preserve" font-family="Novecentowide-Light,Novecento wide" font-size="134.0" fill="#000000" transform="matrix(1.00, 0.00, -0.00, -1.00, 168.5, 4.6)">p</text><text xml:space="preserve" font-family="Novecentowide-Light,Novecento wide" font-size="134.0" fill="#000000" transform="matrix(1.00, 0.00, -0.00, -1.00, 245.6, 4.6)">p</text><text xml:space="preserve" font-family="Novecentowide-Light,Novecento wide" font-size="134.0" fill="#000000" transform="matrix(1.00, 0.00, -0.00, -1.00, 324.2, 4.6)">o</text><text xml:space="preserve" font-family="Novecentowide-Light,Novecento wide" font-size="134.0" fill="#000000" transform="matrix(1.00, 0.00, -0.00, -1.00, 433.2, 4.6)">r</text><text xml:space="preserve" font-family="Novecentowide-Light,Novecento wide" font-size="134.0" fill="#000000" transform="matrix(1.00, 0.00, -0.00, -1.00, 512.9, 4.6)">t</text><text xml:space="preserve" font-family="Novecentowide-Light,Novecento wide" font-size="134.0" fill="#000000" transform="matrix(1.00, 0.00, -0.00, -1.00, 591.3, 4.6)"> </text><text xml:space="preserve" font-family="Novecentowide-Light,Novecento wide" font-size="134.0" fill="#000000" transform="matrix(1.00, 0.00, -0.00, -1.00, 624.8, 4.6)">e</text><text xml:space="preserve" font-family="Novecentowide-Light,Novecento wide" font-size="134.0" fill="#000000" transform="matrix(1.00, 0.00, -0.00, -1.00, 706.8, 4.6)">n</text><text xml:space="preserve" font-family="Novecentowide-Light,Novecento wide" font-size="134.0" fill="#000000" transform="matrix(1.00, 0.00, -0.00, -1.00, 806.2, 4.6)">g</text><text xml:space="preserve" font-family="Novecentowide-Light,Novecento wide" font-size="134.0" fill="#000000" transform="matrix(1.00, 0.00, -0.00, -1.00, 913.0, 4.6)">i</text><text xml:space="preserve" font-family="Novecentowide-Light,Novecento wide" font-size="134.0" fill="#000000" transform="matrix(1.00, 0.00, -0.00, -1.00, 945.2, 4.6)">n</text><text xml:space="preserve" font-family="Novecentowide-Light,Novecento wide" font-size="134.0" fill="#000000" transform="matrix(1.00, 0.00, -0.00, -1.00, 1045.4, 4.6)">e</text><text xml:space="preserve" font-family="Novecentowide-Light,Novecento wide" font-size="134.0" fill="#000000" transform="matrix(1.00, 0.00, -0.00, -1.00, 1127.4, 4.6)">e</text><text xml:space="preserve" font-family="Novecentowide-Light,Novecento wide" font-size="134.0" fill="#000000" transform="matrix(1.00, 0.00, -0.00, -1.00, 1209.4, 4.6)">r</text></g></svg>