<?xml version="1.0" encoding="UTF-8" standalone="no"?><svg xmlns="http://www.w3.org/2000/svg" xmlns:xlink="http://www.w3.org/1999/xlink" clip-rule="evenodd" stroke-miterlimit="10" viewBox="0 0 978 260"><desc>SVG generated by Keynote</desc><defs></defs><g transform="matrix(1.00, 0.00, -0.00, -1.00, 0.0, 260.0)"><text xml:space="preserve" font-family="Novecentowide-Light,Novecento wide" font-size="134.0" fill="#000000" transform="matrix(1.00, 0.00, -0.00, -1.00, 58.9, 164.6)">H</text><text xml:space="preserve" font-family="Novecentowide-Light,Novecento wide" font-size="134.0" fill="#000000" transform="matrix(1.00, 0.00, -0.00, -1.00, 155.7, 164.6)">e</text><text xml:space="preserve" font-family="Novecentowide-Light,Novecento wide" font-size="134.0" fill="#000000" transform="matrix(1.00, 0.00, -0.00, -1.00, 237.7, 164.6)">r</text><text xml:space="preserve" font-family="Novecentowide-Light,Novecento wide" font-size="134.0" fill="#000000" transform="matrix(1.00, 0.00, -0.00, -1.00, 320.1, 164.6)">e</text><text xml:space="preserve" font-family="Novecentowide-Light,Novecento wide" font-size="134.0" fill="#000000" transform="matrix(1.00, 0.00, -0.00, -1.00, 402.1, 164.6)"> </text><text xml:space="preserve" font-family="Novecentowide-Light,Novecento wide" font-size="134.0" fill="#000000" transform="matrix(1.00, 0.00, -0.00, -1.00, 435.6, 164.6)">a</text><text xml:space="preserve" font-family="Novecentowide-Light,Novecento wide" font-size="134.0" fill="#000000" transform="matrix(1.00, 0.00, -0.00, -1.00, 531.0, 164.6)">r</text><text xml:space="preserve" font-family="Novecentowide-Light,Novecento wide" font-size="134.0" fill="#000000" transform="matrix(1.00, 0.00, -0.00, -1.00, 613.4, 164.6)">e</text><text xml:space="preserve" font-family="Novecentowide-Light,Novecento wide" font-size="134.0" fill="#000000" transform="matrix(1.00, 0.00, -0.00, -1.00, 695.4, 164.6)"> </text><text xml:space="preserve" font-family="Novecentowide-Light,Novecento wide" font-size="134.0" fill="#000000" transform="matrix(1.00, 0.00, -0.00, -1.00, 728.9, 164.6)">m</text><text xml:space="preserve" font-family="Novecentowide-Light,Novecento wide" font-size="134.0" fill="#000000" transform="matrix(1.00, 0.00, -0.00, -1.00, 837.7, 164.6)">y</text><text xml:space="preserve" font-family="Novecentowide-Light,Novecento wide" font-size="134.0" fill="#000000" transform="matrix(1.00, 0.00, -0.00, -1.00, 921.1, 164.6)"> </text><text xml:space="preserve" font-family="Novecentowide-Light,Novecento wide" font-size="134.0" fill="#000000" transform="matrix(1.00, 0.00, -0.00, -1.00, -1.8, 3.6)">t</text><text xml:space="preserve" font-family="Novecentowide-Light,Novecento wide" font-size="134.0" fill="#000000" transform="matrix(1.00, 0.00, -0.00, -1.00, 76.6, 3.6)">h</text><text xml:space="preserve" font-family="Novecentowide-Light,Novecento wide" font-size="134.0" fill="#000000" transform="matrix(1.00, 0.00, -0.00, -1.00, 173.4, 3.6)">r</text><text xml:space="preserve" font-family="Novecentowide-Light,Novecento wide" font-size="134.0" fill="#000000" transform="matrix(1.00, 0.00, -0.00, -1.00, 255.8, 3.6)">e</text><text xml:space="preserve" font-family="Novecentowide-Light,Novecento wide" font-size="134.0" fill="#000000" transform="matrix(1.00, 0.00, -0.00, -1.00, 337.8, 3.6)">e</text><text xml:space="preserve" font-family="Novecentowide-Light,Novecento wide" font-size="134.0" fill="#000000" transform="matrix(1.00, 0.00, -0.00, -1.00, 419.8, 3.6)"> </text><text xml:space="preserve" font-family="Novecentowide-Light,Novecento wide" font-size="134.0" fill="#000000" transform="matrix(1.00, 0.00, -0.00, -1.00, 453.3, 3.6)">S</text><text xml:space="preserve" font-family="Novecentowide-Light,Novecento wide" font-size="134.0" fill="#000000" transform="matrix(1.00, 0.00, -0.00, -1.00, 528.1, 3.6)">t</text><text xml:space="preserve" font-family="Novecentowide-Light,Novecento wide" font-size="134.0" fill="#000000" transform="matrix(1.00, 0.00, -0.00, -1.00, 601.1, 3.6)">o</text><text xml:space="preserve" font-family="Novecentowide-Light,Novecento wide" font-size="134.0" fill="#000000" transform="matrix(1.00, 0.00, -0.00, -1.00, 710.0, 3.6)">r</text><text xml:space="preserve" font-family="Novecentowide-Light,Novecento wide" font-size="134.0" fill="#000000" transform="matrix(1.00, 0.00, -0.00, -1.00, 792.4, 3.6)">i</text><text xml:space="preserve" font-family="Novecentowide-Light,Novecento wide" font-size="134.0" fill="#000000" transform="matrix(1.00, 0.00, -0.00, -1.00, 824.6, 3.6)">e</text><text xml:space="preserve" font-family="Novecentowide-Light,Novecento wide" font-size="134.0" fill="#000000" transform="matrix(1.00, 0.00, -0.00, -1.00, 903.3, 3.6)">s</text></g></svg>