<?xml version="1.0" encoding="UTF-8" standalone="no"?><svg xmlns="http://www.w3.org/2000/svg" xmlns:xlink="http://www.w3.org/1999/xlink" clip-rule="evenodd" stroke-miterlimit="10" viewBox="0 0 486 63"><desc>SVG generated by Keynote</desc><defs></defs><g transform="matrix(1.00, 0.00, -0.00, -1.00, 0.0, 63.0)"><text xml:space="preserve" font-family="ZapfDingbatsITC,Zapf Dingbats" font-size="60.0" fill="#3DC7EE" transform="matrix(1.00, 0.00, -0.00, -1.00, 0.1, 13.4)">★</text><text xml:space="preserve" font-family="Novecentowide-Normal,Novecento wide" font-size="60.0" fill="#000000" transform="matrix(1.00, 0.00, -0.00, -1.00, 58.1, 2.8)">W</text><text xml:space="preserve" font-family="Novecentowide-Normal,Novecento wide" font-size="60.0" fill="#000000" transform="matrix(1.00, 0.00, -0.00, -1.00, 116.0, 2.8)">e</text><text xml:space="preserve" font-family="Novecentowide-Normal,Novecento wide" font-size="60.0" fill="#000000" transform="matrix(1.00, 0.00, -0.00, -1.00, 153.7, 2.8)">b</text><text xml:space="preserve" font-family="Novecentowide-Normal,Novecento wide" font-size="60.0" fill="#000000" transform="matrix(1.00, 0.00, -0.00, -1.00, 190.5, 2.8)">W</text><text xml:space="preserve" font-family="Novecentowide-Normal,Novecento wide" font-size="60.0" fill="#000000" transform="matrix(1.00, 0.00, -0.00, -1.00, 247.1, 2.8)">o</text><text xml:space="preserve" font-family="Novecentowide-Normal,Novecento wide" font-size="60.0" fill="#000000" transform="matrix(1.00, 0.00, -0.00, -1.00, 295.4, 2.8)">r</text><text xml:space="preserve" font-family="Novecentowide-Normal,Novecento wide" font-size="60.0" fill="#000000" transform="matrix(1.00, 0.00, -0.00, -1.00, 333.6, 2.8)">k</text><text xml:space="preserve" font-family="Novecentowide-Normal,Novecento wide" font-size="60.0" fill="#000000" transform="matrix(1.00, 0.00, -0.00, -1.00, 374.9, 2.8)">e</text><text xml:space="preserve" font-family="Novecentowide-Normal,Novecento wide" font-size="60.0" fill="#000000" transform="matrix(1.00, 0.00, -0.00, -1.00, 412.7, 2.8)">r</text><text xml:space="preserve" font-family="Novecentowide-Normal,Novecento wide" font-size="60.0" fill="#000000" transform="matrix(1.00, 0.00, -0.00, -1.00, 450.5, 2.8)">s</text></g></svg>