<?xml version="1.0" encoding="UTF-8" standalone="no"?><svg xmlns="http://www.w3.org/2000/svg" xmlns:xlink="http://www.w3.org/1999/xlink" clip-rule="evenodd" stroke-miterlimit="10" viewBox="0 0 629 68"><desc>SVG generated by Keynote</desc><defs></defs><g transform="matrix(1.00, 0.00, -0.00, -1.00, 0.0, 68.0)"><text xml:space="preserve" font-family="Novecentowide-Normal,Novecento wide" font-size="90.0" fill="#000000" transform="matrix(1.00, 0.00, -0.00, -1.00, -7.0, 2.5)">R</text><text xml:space="preserve" font-family="Novecentowide-Normal,Novecento wide" font-size="90.0" fill="#000000" transform="matrix(1.00, 0.00, -0.00, -1.00, 50.4, 2.5)">e</text><text xml:space="preserve" font-family="Novecentowide-Normal,Novecento wide" font-size="90.0" fill="#000000" transform="matrix(1.00, 0.00, -0.00, -1.00, 104.5, 2.5)">s</text><text xml:space="preserve" font-family="Novecentowide-Normal,Novecento wide" font-size="90.0" fill="#000000" transform="matrix(1.00, 0.00, -0.00, -1.00, 156.6, 2.5)">t</text><text xml:space="preserve" font-family="Novecentowide-Normal,Novecento wide" font-size="90.0" fill="#000000" transform="matrix(1.00, 0.00, -0.00, -1.00, 210.0, 2.5)">r</text><text xml:space="preserve" font-family="Novecentowide-Normal,Novecento wide" font-size="90.0" fill="#000000" transform="matrix(1.00, 0.00, -0.00, -1.00, 267.4, 2.5)">i</text><text xml:space="preserve" font-family="Novecentowide-Normal,Novecento wide" font-size="90.0" fill="#000000" transform="matrix(1.00, 0.00, -0.00, -1.00, 290.9, 2.5)">c</text><text xml:space="preserve" font-family="Novecentowide-Normal,Novecento wide" font-size="90.0" fill="#000000" transform="matrix(1.00, 0.00, -0.00, -1.00, 359.4, 2.5)">t</text><text xml:space="preserve" font-family="Novecentowide-Normal,Novecento wide" font-size="90.0" fill="#000000" transform="matrix(1.00, 0.00, -0.00, -1.00, 412.9, 2.5)">i</text><text xml:space="preserve" font-family="Novecentowide-Normal,Novecento wide" font-size="90.0" fill="#000000" transform="matrix(1.00, 0.00, -0.00, -1.00, 436.5, 2.5)">o</text><text xml:space="preserve" font-family="Novecentowide-Normal,Novecento wide" font-size="90.0" fill="#000000" transform="matrix(1.00, 0.00, -0.00, -1.00, 508.9, 2.5)">n</text><text xml:space="preserve" font-family="Novecentowide-Normal,Novecento wide" font-size="90.0" fill="#000000" transform="matrix(1.00, 0.00, -0.00, -1.00, 577.3, 2.5)">s</text></g></svg>