<?xml version="1.0" encoding="UTF-8" standalone="no"?><svg xmlns="http://www.w3.org/2000/svg" xmlns:xlink="http://www.w3.org/1999/xlink" clip-rule="evenodd" stroke-miterlimit="10" viewBox="0 0 958 63"><desc>SVG generated by Keynote</desc><defs></defs><g transform="matrix(1.00, 0.00, -0.00, -1.00, 0.0, 63.0)"><text xml:space="preserve" font-family="ZapfDingbatsITC,Zapf Dingbats" font-size="60.0" fill="#FF4141" transform="matrix(1.00, 0.00, -0.00, -1.00, 0.1, 13.4)">★</text><text xml:space="preserve" font-family="Novecentowide-Normal,Novecento wide" font-size="60.0" fill="#000000" transform="matrix(1.00, 0.00, -0.00, -1.00, 58.1, 2.8)">T</text><text xml:space="preserve" font-family="Novecentowide-Normal,Novecento wide" font-size="60.0" fill="#000000" transform="matrix(1.00, 0.00, -0.00, -1.00, 93.8, 2.8)">h</text><text xml:space="preserve" font-family="Novecentowide-Normal,Novecento wide" font-size="60.0" fill="#000000" transform="matrix(1.00, 0.00, -0.00, -1.00, 137.7, 2.8)">e</text><text xml:space="preserve" font-family="Novecentowide-Normal,Novecento wide" font-size="60.0" fill="#000000" transform="matrix(1.00, 0.00, -0.00, -1.00, 175.5, 2.8)">r</text><text xml:space="preserve" font-family="Novecentowide-Normal,Novecento wide" font-size="60.0" fill="#000000" transform="matrix(1.00, 0.00, -0.00, -1.00, 213.7, 2.8)">e</text><text xml:space="preserve" font-family="Novecentowide-Normal,Novecento wide" font-size="60.0" fill="#000000" transform="matrix(1.00, 0.00, -0.00, -1.00, 251.4, 2.8)"> </text><text xml:space="preserve" font-family="Novecentowide-Normal,Novecento wide" font-size="60.0" fill="#000000" transform="matrix(1.00, 0.00, -0.00, -1.00, 266.4, 2.8)">A</text><text xml:space="preserve" font-family="Novecentowide-Normal,Novecento wide" font-size="60.0" fill="#000000" transform="matrix(1.00, 0.00, -0.00, -1.00, 308.9, 2.8)">R</text><text xml:space="preserve" font-family="Novecentowide-Normal,Novecento wide" font-size="60.0" fill="#000000" transform="matrix(1.00, 0.00, -0.00, -1.00, 347.1, 2.8)">E</text><text xml:space="preserve" font-family="Novecentowide-Normal,Novecento wide" font-size="60.0" fill="#000000" transform="matrix(1.00, 0.00, -0.00, -1.00, 384.9, 2.8)"> </text><text xml:space="preserve" font-family="Novecentowide-Normal,Novecento wide" font-size="60.0" fill="#000000" transform="matrix(1.00, 0.00, -0.00, -1.00, 399.9, 2.8)">N</text><text xml:space="preserve" font-family="Novecentowide-Normal,Novecento wide" font-size="60.0" fill="#000000" transform="matrix(1.00, 0.00, -0.00, -1.00, 445.1, 2.8)">o</text><text xml:space="preserve" font-family="Novecentowide-Normal,Novecento wide" font-size="60.0" fill="#000000" transform="matrix(1.00, 0.00, -0.00, -1.00, 494.0, 2.8)"> </text><text xml:space="preserve" font-family="Novecentowide-Normal,Novecento wide" font-size="60.0" fill="#000000" transform="matrix(1.00, 0.00, -0.00, -1.00, 509.0, 2.8)">b</text><text xml:space="preserve" font-family="Novecentowide-Normal,Novecento wide" font-size="60.0" fill="#000000" transform="matrix(1.00, 0.00, -0.00, -1.00, 547.8, 2.8)">r</text><text xml:space="preserve" font-family="Novecentowide-Normal,Novecento wide" font-size="60.0" fill="#000000" transform="matrix(1.00, 0.00, -0.00, -1.00, 584.6, 2.8)">o</text><text xml:space="preserve" font-family="Novecentowide-Normal,Novecento wide" font-size="60.0" fill="#000000" transform="matrix(1.00, 0.00, -0.00, -1.00, 631.0, 2.8)">w</text><text xml:space="preserve" font-family="Novecentowide-Normal,Novecento wide" font-size="60.0" fill="#000000" transform="matrix(1.00, 0.00, -0.00, -1.00, 689.3, 2.8)">s</text><text xml:space="preserve" font-family="Novecentowide-Normal,Novecento wide" font-size="60.0" fill="#000000" transform="matrix(1.00, 0.00, -0.00, -1.00, 725.0, 2.8)">e</text><text xml:space="preserve" font-family="Novecentowide-Normal,Novecento wide" font-size="60.0" fill="#000000" transform="matrix(1.00, 0.00, -0.00, -1.00, 762.8, 2.8)">r</text><text xml:space="preserve" font-family="Novecentowide-Normal,Novecento wide" font-size="60.0" fill="#000000" transform="matrix(1.00, 0.00, -0.00, -1.00, 801.0, 2.8)"> </text><text xml:space="preserve" font-family="Novecentowide-Normal,Novecento wide" font-size="60.0" fill="#000000" transform="matrix(1.00, 0.00, -0.00, -1.00, 816.0, 2.8)">A</text><text xml:space="preserve" font-family="Novecentowide-Normal,Novecento wide" font-size="60.0" fill="#000000" transform="matrix(1.00, 0.00, -0.00, -1.00, 858.5, 2.8)">P</text><text xml:space="preserve" font-family="Novecentowide-Normal,Novecento wide" font-size="60.0" fill="#000000" transform="matrix(1.00, 0.00, -0.00, -1.00, 894.0, 2.8)">I</text><text xml:space="preserve" font-family="Novecentowide-Normal,Novecento wide" font-size="60.0" fill="#000000" transform="matrix(1.00, 0.00, -0.00, -1.00, 910.1, 2.8)">s</text><text xml:space="preserve" font-family="Novecentowide-Normal,Novecento wide" font-size="60.0" fill="#000000" transform="matrix(1.00, 0.00, -0.00, -1.00, 945.9, 2.8)">:</text></g></svg>