<?xml version="1.0" encoding="UTF-8" standalone="no"?><svg xmlns="http://www.w3.org/2000/svg" xmlns:xlink="http://www.w3.org/1999/xlink" clip-rule="evenodd" stroke-miterlimit="10" viewBox="0 0 1920 1080"><desc>SVG generated by Keynote</desc><defs></defs><g transform="matrix(1.00, 0.00, -0.00, -1.00, 0.0, 1080.0)"><g><clipPath id="clip0x6180008b3b00"><path d="M 0.0 1080.0 L 1920.0 1080.0 L 1920.0 0.0 L 0.0 0.0 Z M 0.0 1080.0 "></path></clipPath><g clip-path="url(#clip0x6180008b3b00)"><image xlink:href="../../1E67C241-5BA9-413A-A8B1-797A3257E5D2/assets/94C59EC12743BC9B69A58A1695CCB92B.jpeg" width="1920.00" height="1080.00" transform="matrix(1.00, 0.00, -0.00, -1.00, 2.5, 1080.0)"></image></g></g><text xml:space="preserve" font-family="Novecentowide-Normal,Novecento wide" font-size="112.0" fill="#000000" transform="matrix(1.00, 0.00, -0.00, -1.00, 167.3, 885.8)">J</text><text xml:space="preserve" font-family="Novecentowide-Normal,Novecento wide" font-size="112.0" fill="#000000" transform="matrix(1.00, 0.00, -0.00, -1.00, 235.4, 885.8)">A</text><text xml:space="preserve" font-family="Novecentowide-Normal,Novecento wide" font-size="112.0" fill="#000000" transform="matrix(1.00, 0.00, -0.00, -1.00, 304.0, 885.8)">V</text><text xml:space="preserve" font-family="Novecentowide-Normal,Novecento wide" font-size="112.0" fill="#000000" transform="matrix(1.00, 0.00, -0.00, -1.00, 372.6, 885.8)">A</text><text xml:space="preserve" font-family="Novecentowide-Normal,Novecento wide" font-size="112.0" fill="#000000" transform="matrix(1.00, 0.00, -0.00, -1.00, 450.6, 885.8)">S</text><text xml:space="preserve" font-family="Novecentowide-Normal,Novecento wide" font-size="112.0" fill="#000000" transform="matrix(1.00, 0.00, -0.00, -1.00, 517.4, 885.8)">c</text><text xml:space="preserve" font-family="Novecentowide-Normal,Novecento wide" font-size="112.0" fill="#000000" transform="matrix(1.00, 0.00, -0.00, -1.00, 601.5, 885.8)">r</text><text xml:space="preserve" font-family="Novecentowide-Normal,Novecento wide" font-size="112.0" fill="#000000" transform="matrix(1.00, 0.00, -0.00, -1.00, 672.8, 885.8)">i</text><text xml:space="preserve" font-family="Novecentowide-Normal,Novecento wide" font-size="112.0" fill="#000000" transform="matrix(1.00, 0.00, -0.00, -1.00, 702.8, 885.8)">p</text><text xml:space="preserve" font-family="Novecentowide-Normal,Novecento wide" font-size="112.0" fill="#000000" transform="matrix(1.00, 0.00, -0.00, -1.00, 769.8, 885.8)">t</text><text xml:space="preserve" font-family="Novecentowide-Normal,Novecento wide" font-size="112.0" fill="#000000" transform="matrix(1.00, 0.00, -0.00, -1.00, 836.3, 885.8)"> </text><text xml:space="preserve" font-family="Novecentowide-Normal,Novecento wide" font-size="112.0" fill="#000000" transform="matrix(1.00, 0.00, -0.00, -1.00, 864.3, 885.8)">i</text><text xml:space="preserve" font-family="Novecentowide-Normal,Novecento wide" font-size="112.0" fill="#000000" transform="matrix(1.00, 0.00, -0.00, -1.00, 894.4, 885.8)">s</text><text xml:space="preserve" font-family="Novecentowide-Normal,Novecento wide" font-size="112.0" fill="#000000" transform="matrix(1.00, 0.00, -0.00, -1.00, 961.1, 885.8)"> </text><text xml:space="preserve" font-family="Novecentowide-Normal,Novecento wide" font-size="112.0" fill="#000000" transform="matrix(1.00, 0.00, -0.00, -1.00, 989.1, 885.8)">e</text><text xml:space="preserve" font-family="Novecentowide-Normal,Novecento wide" font-size="112.0" fill="#000000" transform="matrix(1.00, 0.00, -0.00, -1.00, 1059.6, 885.8)">v</text><text xml:space="preserve" font-family="Novecentowide-Normal,Novecento wide" font-size="112.0" fill="#000000" transform="matrix(1.00, 0.00, -0.00, -1.00, 1138.2, 885.8)">e</text><text xml:space="preserve" font-family="Novecentowide-Normal,Novecento wide" font-size="112.0" fill="#000000" transform="matrix(1.00, 0.00, -0.00, -1.00, 1208.6, 885.8)">r</text><text xml:space="preserve" font-family="Novecentowide-Normal,Novecento wide" font-size="112.0" fill="#000000" transform="matrix(1.00, 0.00, -0.00, -1.00, 1275.5, 885.8)">y</text><text xml:space="preserve" font-family="Novecentowide-Normal,Novecento wide" font-size="112.0" fill="#000000" transform="matrix(1.00, 0.00, -0.00, -1.00, 1349.8, 885.8)">w</text><text xml:space="preserve" font-family="Novecentowide-Normal,Novecento wide" font-size="112.0" fill="#000000" transform="matrix(1.00, 0.00, -0.00, -1.00, 1457.7, 885.8)">h</text><text xml:space="preserve" font-family="Novecentowide-Normal,Novecento wide" font-size="112.0" fill="#000000" transform="matrix(1.00, 0.00, -0.00, -1.00, 1539.8, 885.8)">e</text><text xml:space="preserve" font-family="Novecentowide-Normal,Novecento wide" font-size="112.0" fill="#000000" transform="matrix(1.00, 0.00, -0.00, -1.00, 1610.3, 885.8)">r</text><text xml:space="preserve" font-family="Novecentowide-Normal,Novecento wide" font-size="112.0" fill="#000000" transform="matrix(1.00, 0.00, -0.00, -1.00, 1681.6, 885.8)">e</text></g></svg>