<?xml version="1.0" encoding="UTF-8" standalone="no"?><svg xmlns="http://www.w3.org/2000/svg" xmlns:xlink="http://www.w3.org/1999/xlink" clip-rule="evenodd" stroke-miterlimit="10" viewBox="0 0 1920 1080"><desc>SVG generated by Keynote</desc><defs></defs><g transform="matrix(1.00, 0.00, -0.00, -1.00, 0.0, 1080.0)"><g><clipPath id="clip0x610000ab2060"><path d="M 0.0 1080.0 L 1920.0 1080.0 L 1920.0 0.0 L 0.0 0.0 Z M 0.0 1080.0 "></path></clipPath><g clip-path="url(#clip0x610000ab2060)"><image xlink:href="../../1E67C241-5BA9-413A-A8B1-797A3257E5D2/assets/94C59EC12743BC9B69A58A1695CCB92B.jpeg" width="1920.00" height="1080.00" transform="matrix(1.00, 0.00, -0.00, -1.00, 2.5, 1080.0)"></image></g></g><image xlink:href="07B09105FEF66ECB2B814F9587635200.png" width="217.00" height="185.00" transform="matrix(1.00, 0.00, -0.00, -1.00, 1968.0, 1.0)"></image><text xml:space="preserve" font-family="Novecentowide-Normal,Novecento wide" font-size="112.0" fill="#000000" transform="matrix(1.00, 0.00, -0.00, -1.00, 433.6, 920.3)">w</text><text xml:space="preserve" font-family="Novecentowide-Normal,Novecento wide" font-size="112.0" fill="#000000" transform="matrix(1.00, 0.00, -0.00, -1.00, 531.5, 920.3)">a</text><text xml:space="preserve" font-family="Novecentowide-Normal,Novecento wide" font-size="112.0" fill="#000000" transform="matrix(1.00, 0.00, -0.00, -1.00, 610.8, 920.3)">i</text><text xml:space="preserve" font-family="Novecentowide-Normal,Novecento wide" font-size="112.0" fill="#000000" transform="matrix(1.00, 0.00, -0.00, -1.00, 640.8, 920.3)">t</text><text xml:space="preserve" font-family="Novecentowide-Normal,Novecento wide" font-size="112.0" fill="#000000" transform="matrix(1.00, 0.00, -0.00, -1.00, 700.6, 920.3)">,</text><text xml:space="preserve" font-family="Novecentowide-Normal,Novecento wide" font-size="112.0" fill="#000000" transform="matrix(1.00, 0.00, -0.00, -1.00, 725.1, 920.3)"> </text><text xml:space="preserve" font-family="Novecentowide-Normal,Novecento wide" font-size="112.0" fill="#000000" transform="matrix(1.00, 0.00, -0.00, -1.00, 753.1, 920.3)">j</text><text xml:space="preserve" font-family="Novecentowide-Normal,Novecento wide" font-size="112.0" fill="#000000" transform="matrix(1.00, 0.00, -0.00, -1.00, 821.2, 920.3)">a</text><text xml:space="preserve" font-family="Novecentowide-Normal,Novecento wide" font-size="112.0" fill="#000000" transform="matrix(1.00, 0.00, -0.00, -1.00, 889.9, 920.3)">v</text><text xml:space="preserve" font-family="Novecentowide-Normal,Novecento wide" font-size="112.0" fill="#000000" transform="matrix(1.00, 0.00, -0.00, -1.00, 958.4, 920.3)">a</text><text xml:space="preserve" font-family="Novecentowide-Normal,Novecento wide" font-size="112.0" fill="#000000" transform="matrix(1.00, 0.00, -0.00, -1.00, 1036.5, 920.3)">s</text><text xml:space="preserve" font-family="Novecentowide-Normal,Novecento wide" font-size="112.0" fill="#000000" transform="matrix(1.00, 0.00, -0.00, -1.00, 1103.2, 920.3)">c</text><text xml:space="preserve" font-family="Novecentowide-Normal,Novecento wide" font-size="112.0" fill="#000000" transform="matrix(1.00, 0.00, -0.00, -1.00, 1187.4, 920.3)">r</text><text xml:space="preserve" font-family="Novecentowide-Normal,Novecento wide" font-size="112.0" fill="#000000" transform="matrix(1.00, 0.00, -0.00, -1.00, 1258.7, 920.3)">i</text><text xml:space="preserve" font-family="Novecentowide-Normal,Novecento wide" font-size="112.0" fill="#000000" transform="matrix(1.00, 0.00, -0.00, -1.00, 1288.7, 920.3)">p</text><text xml:space="preserve" font-family="Novecentowide-Normal,Novecento wide" font-size="112.0" fill="#000000" transform="matrix(1.00, 0.00, -0.00, -1.00, 1355.7, 920.3)">t</text><text xml:space="preserve" font-family="Novecentowide-Normal,Novecento wide" font-size="112.0" fill="#000000" transform="matrix(1.00, 0.00, -0.00, -1.00, 1422.2, 920.3)">?</text><text xml:space="preserve" font-family="Novecentowide-Normal,Novecento wide" font-size="112.0" fill="#000000" transform="matrix(1.00, 0.00, -0.00, -1.00, 1486.4, 920.3)"> </text><text xml:space="preserve" font-family="Novecentowide-Normal,Novecento wide" font-size="112.0" fill="#000000" transform="matrix(1.00, 0.00, -0.00, -1.00, 1514.4, 920.3)"> </text><text xml:space="preserve" font-family="Novecentowide-Normal,Novecento wide" font-size="112.0" fill="#000000" transform="matrix(1.00, 0.00, -0.00, -1.00, 252.3, 785.3)">i</text><text xml:space="preserve" font-family="Novecentowide-Normal,Novecento wide" font-size="112.0" fill="#000000" transform="matrix(1.00, 0.00, -0.00, -1.00, 282.3, 785.3)">t</text><text xml:space="preserve" font-family="Novecentowide-Normal,Novecento wide" font-size="112.0" fill="#000000" transform="matrix(1.00, 0.00, -0.00, -1.00, 348.9, 785.3)">’</text><text xml:space="preserve" font-family="Novecentowide-Normal,Novecento wide" font-size="112.0" fill="#000000" transform="matrix(1.00, 0.00, -0.00, -1.00, 382.5, 785.3)">s</text><text xml:space="preserve" font-family="Novecentowide-Normal,Novecento wide" font-size="112.0" fill="#000000" transform="matrix(1.00, 0.00, -0.00, -1.00, 449.2, 785.3)"> </text><text xml:space="preserve" font-family="Novecentowide-Normal,Novecento wide" font-size="112.0" fill="#000000" transform="matrix(1.00, 0.00, -0.00, -1.00, 477.2, 785.3)">o</text><text xml:space="preserve" font-family="Novecentowide-Normal,Novecento wide" font-size="112.0" fill="#000000" transform="matrix(1.00, 0.00, -0.00, -1.00, 567.4, 785.3)">n</text><text xml:space="preserve" font-family="Novecentowide-Normal,Novecento wide" font-size="112.0" fill="#000000" transform="matrix(1.00, 0.00, -0.00, -1.00, 652.5, 785.3)">l</text><text xml:space="preserve" font-family="Novecentowide-Normal,Novecento wide" font-size="112.0" fill="#000000" transform="matrix(1.00, 0.00, -0.00, -1.00, 702.1, 785.3)">y</text><text xml:space="preserve" font-family="Novecentowide-Normal,Novecento wide" font-size="112.0" fill="#000000" transform="matrix(1.00, 0.00, -0.00, -1.00, 775.6, 785.3)"> </text><text xml:space="preserve" font-family="Novecentowide-Normal,Novecento wide" font-size="112.0" fill="#000000" transform="matrix(1.00, 0.00, -0.00, -1.00, 803.6, 785.3)">f</text><text xml:space="preserve" font-family="Novecentowide-Normal,Novecento wide" font-size="112.0" fill="#000000" transform="matrix(1.00, 0.00, -0.00, -1.00, 867.1, 785.3)">o</text><text xml:space="preserve" font-family="Novecentowide-Normal,Novecento wide" font-size="112.0" fill="#000000" transform="matrix(1.00, 0.00, -0.00, -1.00, 957.3, 785.3)">r</text><text xml:space="preserve" font-family="Novecentowide-Normal,Novecento wide" font-size="112.0" fill="#000000" transform="matrix(1.00, 0.00, -0.00, -1.00, 1028.6, 785.3)"> </text><text xml:space="preserve" font-family="Novecentowide-Normal,Novecento wide" font-size="112.0" fill="#000000" transform="matrix(1.00, 0.00, -0.00, -1.00, 1056.6, 785.3)">b</text><text xml:space="preserve" font-family="Novecentowide-Normal,Novecento wide" font-size="112.0" fill="#000000" transform="matrix(1.00, 0.00, -0.00, -1.00, 1129.1, 785.3)">r</text><text xml:space="preserve" font-family="Novecentowide-Normal,Novecento wide" font-size="112.0" fill="#000000" transform="matrix(1.00, 0.00, -0.00, -1.00, 1197.7, 785.3)">o</text><text xml:space="preserve" font-family="Novecentowide-Normal,Novecento wide" font-size="112.0" fill="#000000" transform="matrix(1.00, 0.00, -0.00, -1.00, 1284.4, 785.3)">w</text><text xml:space="preserve" font-family="Novecentowide-Normal,Novecento wide" font-size="112.0" fill="#000000" transform="matrix(1.00, 0.00, -0.00, -1.00, 1393.2, 785.3)">s</text><text xml:space="preserve" font-family="Novecentowide-Normal,Novecento wide" font-size="112.0" fill="#000000" transform="matrix(1.00, 0.00, -0.00, -1.00, 1459.9, 785.3)">e</text><text xml:space="preserve" font-family="Novecentowide-Normal,Novecento wide" font-size="112.0" fill="#000000" transform="matrix(1.00, 0.00, -0.00, -1.00, 1530.4, 785.3)">r</text><text xml:space="preserve" font-family="Novecentowide-Normal,Novecento wide" font-size="112.0" fill="#000000" transform="matrix(1.00, 0.00, -0.00, -1.00, 1600.9, 785.3)">s</text></g></svg>