<?xml version="1.0" encoding="UTF-8" standalone="no"?><svg xmlns="http://www.w3.org/2000/svg" xmlns:xlink="http://www.w3.org/1999/xlink" clip-rule="evenodd" stroke-miterlimit="10" viewBox="0 0 752 63"><desc>SVG generated by Keynote</desc><defs></defs><g transform="matrix(1.00, 0.00, -0.00, -1.00, 0.0, 63.0)"><text xml:space="preserve" font-family="ZapfDingbatsITC,Zapf Dingbats" font-size="60.0" fill="#FF4141" transform="matrix(1.00, 0.00, -0.00, -1.00, 0.1, 13.9)">★</text><text xml:space="preserve" font-family="Novecentowide-Normal,Novecento wide" font-size="60.0" fill="#000000" transform="matrix(1.00, 0.00, -0.00, -1.00, 58.1, 3.3)">E</text><text xml:space="preserve" font-family="Novecentowide-Normal,Novecento wide" font-size="60.0" fill="#000000" transform="matrix(1.00, 0.00, -0.00, -1.00, 95.9, 3.3)">x</text><text xml:space="preserve" font-family="Novecentowide-Normal,Novecento wide" font-size="60.0" fill="#000000" transform="matrix(1.00, 0.00, -0.00, -1.00, 135.9, 3.3)">t</text><text xml:space="preserve" font-family="Novecentowide-Normal,Novecento wide" font-size="60.0" fill="#000000" transform="matrix(1.00, 0.00, -0.00, -1.00, 171.6, 3.3)">e</text><text xml:space="preserve" font-family="Novecentowide-Normal,Novecento wide" font-size="60.0" fill="#000000" transform="matrix(1.00, 0.00, -0.00, -1.00, 209.3, 3.3)">n</text><text xml:space="preserve" font-family="Novecentowide-Normal,Novecento wide" font-size="60.0" fill="#000000" transform="matrix(1.00, 0.00, -0.00, -1.00, 254.9, 3.3)">d</text><text xml:space="preserve" font-family="Novecentowide-Normal,Novecento wide" font-size="60.0" fill="#000000" transform="matrix(1.00, 0.00, -0.00, -1.00, 302.6, 3.3)"> </text><text xml:space="preserve" font-family="Novecentowide-Normal,Novecento wide" font-size="60.0" fill="#000000" transform="matrix(1.00, 0.00, -0.00, -1.00, 317.6, 3.3)">J</text><text xml:space="preserve" font-family="Novecentowide-Normal,Novecento wide" font-size="60.0" fill="#000000" transform="matrix(1.00, 0.00, -0.00, -1.00, 354.0, 3.3)">a</text><text xml:space="preserve" font-family="Novecentowide-Normal,Novecento wide" font-size="60.0" fill="#000000" transform="matrix(1.00, 0.00, -0.00, -1.00, 390.8, 3.3)">v</text><text xml:space="preserve" font-family="Novecentowide-Normal,Novecento wide" font-size="60.0" fill="#000000" transform="matrix(1.00, 0.00, -0.00, -1.00, 427.5, 3.3)">a</text><text xml:space="preserve" font-family="Novecentowide-Normal,Novecento wide" font-size="60.0" fill="#000000" transform="matrix(1.00, 0.00, -0.00, -1.00, 470.7, 3.3)"> </text><text xml:space="preserve" font-family="Novecentowide-Normal,Novecento wide" font-size="60.0" fill="#000000" transform="matrix(1.00, 0.00, -0.00, -1.00, 485.7, 3.3)">c</text><text xml:space="preserve" font-family="Novecentowide-Normal,Novecento wide" font-size="60.0" fill="#000000" transform="matrix(1.00, 0.00, -0.00, -1.00, 530.7, 3.3)">l</text><text xml:space="preserve" font-family="Novecentowide-Normal,Novecento wide" font-size="60.0" fill="#000000" transform="matrix(1.00, 0.00, -0.00, -1.00, 566.1, 3.3)">a</text><text xml:space="preserve" font-family="Novecentowide-Normal,Novecento wide" font-size="60.0" fill="#000000" transform="matrix(1.00, 0.00, -0.00, -1.00, 608.0, 3.3)">s</text><text xml:space="preserve" font-family="Novecentowide-Normal,Novecento wide" font-size="60.0" fill="#000000" transform="matrix(1.00, 0.00, -0.00, -1.00, 643.7, 3.3)">s</text><text xml:space="preserve" font-family="Novecentowide-Normal,Novecento wide" font-size="60.0" fill="#000000" transform="matrix(1.00, 0.00, -0.00, -1.00, 679.5, 3.3)">e</text><text xml:space="preserve" font-family="Novecentowide-Normal,Novecento wide" font-size="60.0" fill="#000000" transform="matrix(1.00, 0.00, -0.00, -1.00, 715.6, 3.3)">s</text></g></svg>