<?xml version="1.0" encoding="UTF-8" standalone="no"?><svg xmlns="http://www.w3.org/2000/svg" xmlns:xlink="http://www.w3.org/1999/xlink" clip-rule="evenodd" stroke-miterlimit="10" viewBox="0 0 1385 72"><desc>SVG generated by Keynote</desc><defs></defs><g transform="matrix(1.00, 0.00, -0.00, -1.00, 0.0, 72.0)"><text xml:space="preserve" font-family="ZapfDingbatsITC,Zapf Dingbats" font-size="60.0" fill="#FF4141" transform="matrix(1.00, 0.00, -0.00, -1.00, 0.1, 22.4)">★</text><text xml:space="preserve" font-family="Novecentowide-Normal,Novecento wide" font-size="60.0" fill="#000000" transform="matrix(1.00, 0.00, -0.00, -1.00, 58.1, 15.0)">T</text><text xml:space="preserve" font-family="Novecentowide-Normal,Novecento wide" font-size="60.0" fill="#000000" transform="matrix(1.00, 0.00, -0.00, -1.00, 93.8, 15.0)">h</text><text xml:space="preserve" font-family="Novecentowide-Normal,Novecento wide" font-size="60.0" fill="#000000" transform="matrix(1.00, 0.00, -0.00, -1.00, 137.7, 15.0)">e</text><text xml:space="preserve" font-family="Novecentowide-Normal,Novecento wide" font-size="60.0" fill="#000000" transform="matrix(1.00, 0.00, -0.00, -1.00, 175.5, 15.0)"> </text><text xml:space="preserve" font-family="Novecentowide-Normal,Novecento wide" font-size="60.0" fill="#000000" transform="matrix(1.00, 0.00, -0.00, -1.00, 190.5, 15.0)">o</text><text xml:space="preserve" font-family="Novecentowide-Normal,Novecento wide" font-size="60.0" fill="#000000" transform="matrix(1.00, 0.00, -0.00, -1.00, 238.8, 15.0)">n</text><text xml:space="preserve" font-family="Novecentowide-Normal,Novecento wide" font-size="60.0" fill="#000000" transform="matrix(1.00, 0.00, -0.00, -1.00, 284.4, 15.0)">l</text><text xml:space="preserve" font-family="Novecentowide-Normal,Novecento wide" font-size="60.0" fill="#000000" transform="matrix(1.00, 0.00, -0.00, -1.00, 311.0, 15.0)">y</text><text xml:space="preserve" font-family="Novecentowide-Normal,Novecento wide" font-size="60.0" fill="#000000" transform="matrix(1.00, 0.00, -0.00, -1.00, 350.3, 15.0)"> </text><text xml:space="preserve" font-family="Novecentowide-Normal,Novecento wide" font-size="60.0" fill="#000000" transform="matrix(1.00, 0.00, -0.00, -1.00, 365.3, 15.0)">A</text><text xml:space="preserve" font-family="Novecentowide-Normal,Novecento wide" font-size="60.0" fill="#000000" transform="matrix(1.00, 0.00, -0.00, -1.00, 407.8, 15.0)">P</text><text xml:space="preserve" font-family="Novecentowide-Normal,Novecento wide" font-size="60.0" fill="#000000" transform="matrix(1.00, 0.00, -0.00, -1.00, 443.4, 15.0)">I</text><text xml:space="preserve" font-family="Novecentowide-Normal,Novecento wide" font-size="60.0" fill="#000000" transform="matrix(1.00, 0.00, -0.00, -1.00, 459.5, 15.0)"> </text><text xml:space="preserve" font-family="Novecentowide-Normal,Novecento wide" font-size="60.0" fill="#000000" transform="matrix(1.00, 0.00, -0.00, -1.00, 474.5, 15.0)">i</text><text xml:space="preserve" font-family="Novecentowide-Normal,Novecento wide" font-size="60.0" fill="#000000" transform="matrix(1.00, 0.00, -0.00, -1.00, 490.5, 15.0)">s</text><text xml:space="preserve" font-family="Novecentowide-Normal,Novecento wide" font-size="60.0" fill="#000000" transform="matrix(1.00, 0.00, -0.00, -1.00, 526.3, 15.0)"> </text><text xml:space="preserve" font-family="Novecentowide-Normal,Novecento wide" font-size="60.0" fill="#000000" transform="matrix(1.00, 0.00, -0.00, -1.00, 541.3, 15.0)">J</text><text xml:space="preserve" font-family="Novecentowide-Normal,Novecento wide" font-size="60.0" fill="#000000" transform="matrix(1.00, 0.00, -0.00, -1.00, 580.6, 15.0)">S</text><text xml:space="preserve" font-family="Novecentowide-Normal,Novecento wide" font-size="60.0" fill="#000000" transform="matrix(1.00, 0.00, -0.00, -1.00, 616.4, 15.0)">R</text><text xml:space="preserve" font-family="Novecentowide-Normal,Novecento wide" font-size="60.0" fill="#000000" transform="matrix(1.00, 0.00, -0.00, -1.00, 654.6, 15.0)">-</text><text xml:space="preserve" font-family="Novecentowide-Normal,Novecento wide" font-size="60.0" fill="#000000" transform="matrix(1.00, 0.00, -0.00, -1.00, 693.5, 15.0)">2</text><text xml:space="preserve" font-family="Novecentowide-Normal,Novecento wide" font-size="60.0" fill="#000000" transform="matrix(1.00, 0.00, -0.00, -1.00, 728.0, 15.0)">2</text><text xml:space="preserve" font-family="Novecentowide-Normal,Novecento wide" font-size="60.0" fill="#000000" transform="matrix(1.00, 0.00, -0.00, -1.00, 762.4, 15.0)">3</text><text xml:space="preserve" font-family="Novecentowide-Normal,Novecento wide" font-size="60.0" fill="#000000" transform="matrix(1.00, 0.00, -0.00, -1.00, 798.2, 15.0)">:</text><text xml:space="preserve" font-family="Novecentowide-Normal,Novecento wide" font-size="60.0" fill="#000000" transform="matrix(1.00, 0.00, -0.00, -1.00, 811.4, 15.0)"> </text><text xml:space="preserve" font-family="Consolas,Consolas" font-size="60.0" fill="#000000" transform="matrix(1.00, 0.00, -0.00, -1.00, 826.4, 15.0)">j</text><text xml:space="preserve" font-family="Consolas,Consolas" font-size="60.0" fill="#000000" transform="matrix(1.00, 0.00, -0.00, -1.00, 859.3, 15.0)">a</text><text xml:space="preserve" font-family="Consolas,Consolas" font-size="60.0" fill="#000000" transform="matrix(1.00, 0.00, -0.00, -1.00, 892.3, 15.0)">v</text><text xml:space="preserve" font-family="Consolas,Consolas" font-size="60.0" fill="#000000" transform="matrix(1.00, 0.00, -0.00, -1.00, 925.3, 15.0)">a</text><text xml:space="preserve" font-family="Consolas,Consolas" font-size="60.0" fill="#000000" transform="matrix(1.00, 0.00, -0.00, -1.00, 958.3, 15.0)">x</text><text xml:space="preserve" font-family="Consolas,Consolas" font-size="60.0" fill="#000000" transform="matrix(1.00, 0.00, -0.00, -1.00, 991.2, 15.0)">.</text><text xml:space="preserve" font-family="Consolas,Consolas" font-size="60.0" fill="#000000" transform="matrix(1.00, 0.00, -0.00, -1.00, 1024.2, 15.0)">s</text><text xml:space="preserve" font-family="Consolas,Consolas" font-size="60.0" fill="#000000" transform="matrix(1.00, 0.00, -0.00, -1.00, 1057.2, 15.0)">c</text><text xml:space="preserve" font-family="Consolas,Consolas" font-size="60.0" fill="#000000" transform="matrix(1.00, 0.00, -0.00, -1.00, 1090.2, 15.0)">r</text><text xml:space="preserve" font-family="Consolas,Consolas" font-size="60.0" fill="#000000" transform="matrix(1.00, 0.00, -0.00, -1.00, 1123.1, 15.0)">i</text><text xml:space="preserve" font-family="Consolas,Consolas" font-size="60.0" fill="#000000" transform="matrix(1.00, 0.00, -0.00, -1.00, 1156.1, 15.0)">p</text><text xml:space="preserve" font-family="Consolas,Consolas" font-size="60.0" fill="#000000" transform="matrix(1.00, 0.00, -0.00, -1.00, 1189.1, 15.0)">t</text><text xml:space="preserve" font-family="Consolas,Consolas" font-size="60.0" fill="#000000" transform="matrix(1.00, 0.00, -0.00, -1.00, 1222.1, 15.0)">i</text><text xml:space="preserve" font-family="Consolas,Consolas" font-size="60.0" fill="#000000" transform="matrix(1.00, 0.00, -0.00, -1.00, 1255.0, 15.0)">n</text><text xml:space="preserve" font-family="Consolas,Consolas" font-size="60.0" fill="#000000" transform="matrix(1.00, 0.00, -0.00, -1.00, 1288.0, 15.0)">g</text><text xml:space="preserve" font-family="Consolas,Consolas" font-size="60.0" fill="#000000" transform="matrix(1.00, 0.00, -0.00, -1.00, 1321.0, 15.0)">.</text><text xml:space="preserve" font-family="Consolas,Consolas" font-size="60.0" fill="#000000" transform="matrix(1.00, 0.00, -0.00, -1.00, 1354.0, 15.0)">*</text></g></svg>