<?xml version="1.0" encoding="UTF-8" standalone="no"?><svg xmlns="http://www.w3.org/2000/svg" xmlns:xlink="http://www.w3.org/1999/xlink" clip-rule="evenodd" stroke-miterlimit="10" viewBox="0 0 619 23"><desc>SVG generated by Keynote</desc><defs></defs><g transform="matrix(1.00, 0.00, -0.00, -1.00, 0.0, 23.0)"><text xml:space="preserve" font-family="ArialMT,Arial" font-size="18.0" fill="#FEFFFE" transform="matrix(1.00, 0.00, -0.00, -1.00, 0.8, 5.6)">h</text><text xml:space="preserve" font-family="ArialMT,Arial" font-size="18.0" fill="#FEFFFE" transform="matrix(1.00, 0.00, -0.00, -1.00, 10.8, 5.6)">t</text><text xml:space="preserve" font-family="ArialMT,Arial" font-size="18.0" fill="#FEFFFE" transform="matrix(1.00, 0.00, -0.00, -1.00, 15.8, 5.6)">t</text><text xml:space="preserve" font-family="ArialMT,Arial" font-size="18.0" fill="#FEFFFE" transform="matrix(1.00, 0.00, -0.00, -1.00, 20.8, 5.6)">p</text><text xml:space="preserve" font-family="ArialMT,Arial" font-size="18.0" fill="#FEFFFE" transform="matrix(1.00, 0.00, -0.00, -1.00, 30.9, 5.6)">:</text><text xml:space="preserve" font-family="ArialMT,Arial" font-size="18.0" fill="#FEFFFE" transform="matrix(1.00, 0.00, -0.00, -1.00, 35.9, 5.6)">/</text><text xml:space="preserve" font-family="ArialMT,Arial" font-size="18.0" fill="#FEFFFE" transform="matrix(1.00, 0.00, -0.00, -1.00, 40.9, 5.6)">/</text><text xml:space="preserve" font-family="ArialMT,Arial" font-size="18.0" fill="#FEFFFE" transform="matrix(1.00, 0.00, -0.00, -1.00, 45.8, 5.6)">w</text><text xml:space="preserve" font-family="ArialMT,Arial" font-size="18.0" fill="#FEFFFE" transform="matrix(1.00, 0.00, -0.00, -1.00, 58.9, 5.6)">w</text><text xml:space="preserve" font-family="ArialMT,Arial" font-size="18.0" fill="#FEFFFE" transform="matrix(1.00, 0.00, -0.00, -1.00, 71.9, 5.6)">w</text><text xml:space="preserve" font-family="ArialMT,Arial" font-size="18.0" fill="#FEFFFE" transform="matrix(1.00, 0.00, -0.00, -1.00, 83.9, 5.6)">.</text><text xml:space="preserve" font-family="ArialMT,Arial" font-size="18.0" fill="#FEFFFE" transform="matrix(1.00, 0.00, -0.00, -1.00, 88.9, 5.6)">1</text><text xml:space="preserve" font-family="ArialMT,Arial" font-size="18.0" fill="#FEFFFE" transform="matrix(1.00, 0.00, -0.00, -1.00, 98.9, 5.6)">0</text><text xml:space="preserve" font-family="ArialMT,Arial" font-size="18.0" fill="#FEFFFE" transform="matrix(1.00, 0.00, -0.00, -1.00, 108.9, 5.6)">0</text><text xml:space="preserve" font-family="ArialMT,Arial" font-size="18.0" fill="#FEFFFE" transform="matrix(1.00, 0.00, -0.00, -1.00, 118.9, 5.6)">1</text><text xml:space="preserve" font-family="ArialMT,Arial" font-size="18.0" fill="#FEFFFE" transform="matrix(1.00, 0.00, -0.00, -1.00, 128.9, 5.6)">a</text><text xml:space="preserve" font-family="ArialMT,Arial" font-size="18.0" fill="#FEFFFE" transform="matrix(1.00, 0.00, -0.00, -1.00, 138.9, 5.6)">u</text><text xml:space="preserve" font-family="ArialMT,Arial" font-size="18.0" fill="#FEFFFE" transform="matrix(1.00, 0.00, -0.00, -1.00, 148.9, 5.6)">s</text><text xml:space="preserve" font-family="ArialMT,Arial" font-size="18.0" fill="#FEFFFE" transform="matrix(1.00, 0.00, -0.00, -1.00, 157.9, 5.6)">m</text><text xml:space="preserve" font-family="ArialMT,Arial" font-size="18.0" fill="#FEFFFE" transform="matrix(1.00, 0.00, -0.00, -1.00, 172.9, 5.6)">a</text><text xml:space="preserve" font-family="ArialMT,Arial" font-size="18.0" fill="#FEFFFE" transform="matrix(1.00, 0.00, -0.00, -1.00, 183.0, 5.6)">l</text><text xml:space="preserve" font-family="ArialMT,Arial" font-size="18.0" fill="#FEFFFE" transform="matrix(1.00, 0.00, -0.00, -1.00, 187.0, 5.6)">b</text><text xml:space="preserve" font-family="ArialMT,Arial" font-size="18.0" fill="#FEFFFE" transform="matrix(1.00, 0.00, -0.00, -1.00, 197.0, 5.6)">i</text><text xml:space="preserve" font-family="ArialMT,Arial" font-size="18.0" fill="#FEFFFE" transform="matrix(1.00, 0.00, -0.00, -1.00, 201.0, 5.6)">l</text><text xml:space="preserve" font-family="ArialMT,Arial" font-size="18.0" fill="#FEFFFE" transform="matrix(1.00, 0.00, -0.00, -1.00, 205.0, 5.6)">d</text><text xml:space="preserve" font-family="ArialMT,Arial" font-size="18.0" fill="#FEFFFE" transform="matrix(1.00, 0.00, -0.00, -1.00, 215.0, 5.6)">e</text><text xml:space="preserve" font-family="ArialMT,Arial" font-size="18.0" fill="#FEFFFE" transform="matrix(1.00, 0.00, -0.00, -1.00, 225.0, 5.6)">r</text><text xml:space="preserve" font-family="ArialMT,Arial" font-size="18.0" fill="#FEFFFE" transform="matrix(1.00, 0.00, -0.00, -1.00, 230.0, 5.6)">.</text><text xml:space="preserve" font-family="ArialMT,Arial" font-size="18.0" fill="#FEFFFE" transform="matrix(1.00, 0.00, -0.00, -1.00, 235.0, 5.6)">d</text><text xml:space="preserve" font-family="ArialMT,Arial" font-size="18.0" fill="#FEFFFE" transform="matrix(1.00, 0.00, -0.00, -1.00, 245.0, 5.6)">e</text><text xml:space="preserve" font-family="ArialMT,Arial" font-size="18.0" fill="#FEFFFE" transform="matrix(1.00, 0.00, -0.00, -1.00, 255.0, 5.6)">/</text><text xml:space="preserve" font-family="ArialMT,Arial" font-size="18.0" fill="#FEFFFE" transform="matrix(1.00, 0.00, -0.00, -1.00, 260.0, 5.6)">a</text><text xml:space="preserve" font-family="ArialMT,Arial" font-size="18.0" fill="#FEFFFE" transform="matrix(1.00, 0.00, -0.00, -1.00, 270.0, 5.6)">u</text><text xml:space="preserve" font-family="ArialMT,Arial" font-size="18.0" fill="#FEFFFE" transform="matrix(1.00, 0.00, -0.00, -1.00, 280.1, 5.6)">s</text><text xml:space="preserve" font-family="ArialMT,Arial" font-size="18.0" fill="#FEFFFE" transform="matrix(1.00, 0.00, -0.00, -1.00, 289.1, 5.6)">m</text><text xml:space="preserve" font-family="ArialMT,Arial" font-size="18.0" fill="#FEFFFE" transform="matrix(1.00, 0.00, -0.00, -1.00, 304.1, 5.6)">a</text><text xml:space="preserve" font-family="ArialMT,Arial" font-size="18.0" fill="#FEFFFE" transform="matrix(1.00, 0.00, -0.00, -1.00, 314.1, 5.6)">l</text><text xml:space="preserve" font-family="ArialMT,Arial" font-size="18.0" fill="#FEFFFE" transform="matrix(1.00, 0.00, -0.00, -1.00, 318.1, 5.6)">b</text><text xml:space="preserve" font-family="ArialMT,Arial" font-size="18.0" fill="#FEFFFE" transform="matrix(1.00, 0.00, -0.00, -1.00, 328.1, 5.6)">i</text><text xml:space="preserve" font-family="ArialMT,Arial" font-size="18.0" fill="#FEFFFE" transform="matrix(1.00, 0.00, -0.00, -1.00, 332.1, 5.6)">l</text><text xml:space="preserve" font-family="ArialMT,Arial" font-size="18.0" fill="#FEFFFE" transform="matrix(1.00, 0.00, -0.00, -1.00, 336.1, 5.6)">d</text><text xml:space="preserve" font-family="ArialMT,Arial" font-size="18.0" fill="#FEFFFE" transform="matrix(1.00, 0.00, -0.00, -1.00, 346.1, 5.6)">e</text><text xml:space="preserve" font-family="ArialMT,Arial" font-size="18.0" fill="#FEFFFE" transform="matrix(1.00, 0.00, -0.00, -1.00, 356.1, 5.6)">r</text><text xml:space="preserve" font-family="ArialMT,Arial" font-size="18.0" fill="#FEFFFE" transform="matrix(1.00, 0.00, -0.00, -1.00, 362.1, 5.6)">/</text><text xml:space="preserve" font-family="ArialMT,Arial" font-size="18.0" fill="#FEFFFE" transform="matrix(1.00, 0.00, -0.00, -1.00, 367.1, 5.6)">g</text><text xml:space="preserve" font-family="ArialMT,Arial" font-size="18.0" fill="#FEFFFE" transform="matrix(1.00, 0.00, -0.00, -1.00, 377.1, 5.6)">r</text><text xml:space="preserve" font-family="ArialMT,Arial" font-size="18.0" fill="#FEFFFE" transform="matrix(1.00, 0.00, -0.00, -1.00, 383.1, 5.6)">o</text><text xml:space="preserve" font-family="ArialMT,Arial" font-size="18.0" fill="#FEFFFE" transform="matrix(1.00, 0.00, -0.00, -1.00, 393.1, 5.6)">s</text><text xml:space="preserve" font-family="ArialMT,Arial" font-size="18.0" fill="#FEFFFE" transform="matrix(1.00, 0.00, -0.00, -1.00, 402.1, 5.6)">s</text><text xml:space="preserve" font-family="ArialMT,Arial" font-size="18.0" fill="#FEFFFE" transform="matrix(1.00, 0.00, -0.00, -1.00, 411.1, 5.6)">/</text><text xml:space="preserve" font-family="ArialMT,Arial" font-size="18.0" fill="#FEFFFE" transform="matrix(1.00, 0.00, -0.00, -1.00, 416.1, 5.6)">a</text><text xml:space="preserve" font-family="ArialMT,Arial" font-size="18.0" fill="#FEFFFE" transform="matrix(1.00, 0.00, -0.00, -1.00, 426.1, 5.6)">u</text><text xml:space="preserve" font-family="ArialMT,Arial" font-size="18.0" fill="#FEFFFE" transform="matrix(1.00, 0.00, -0.00, -1.00, 436.2, 5.6)">s</text><text xml:space="preserve" font-family="ArialMT,Arial" font-size="18.0" fill="#FEFFFE" transform="matrix(1.00, 0.00, -0.00, -1.00, 445.2, 5.6)">m</text><text xml:space="preserve" font-family="ArialMT,Arial" font-size="18.0" fill="#FEFFFE" transform="matrix(1.00, 0.00, -0.00, -1.00, 460.2, 5.6)">a</text><text xml:space="preserve" font-family="ArialMT,Arial" font-size="18.0" fill="#FEFFFE" transform="matrix(1.00, 0.00, -0.00, -1.00, 470.2, 5.6)">l</text><text xml:space="preserve" font-family="ArialMT,Arial" font-size="18.0" fill="#FEFFFE" transform="matrix(1.00, 0.00, -0.00, -1.00, 474.2, 5.6)">b</text><text xml:space="preserve" font-family="ArialMT,Arial" font-size="18.0" fill="#FEFFFE" transform="matrix(1.00, 0.00, -0.00, -1.00, 484.2, 5.6)">i</text><text xml:space="preserve" font-family="ArialMT,Arial" font-size="18.0" fill="#FEFFFE" transform="matrix(1.00, 0.00, -0.00, -1.00, 488.2, 5.6)">l</text><text xml:space="preserve" font-family="ArialMT,Arial" font-size="18.0" fill="#FEFFFE" transform="matrix(1.00, 0.00, -0.00, -1.00, 492.2, 5.6)">d</text><text xml:space="preserve" font-family="ArialMT,Arial" font-size="18.0" fill="#FEFFFE" transform="matrix(1.00, 0.00, -0.00, -1.00, 502.2, 5.6)">-</text><text xml:space="preserve" font-family="ArialMT,Arial" font-size="18.0" fill="#FEFFFE" transform="matrix(1.00, 0.00, -0.00, -1.00, 508.2, 5.6)">n</text><text xml:space="preserve" font-family="ArialMT,Arial" font-size="18.0" fill="#FEFFFE" transform="matrix(1.00, 0.00, -0.00, -1.00, 518.2, 5.6)">a</text><text xml:space="preserve" font-family="ArialMT,Arial" font-size="18.0" fill="#FEFFFE" transform="matrix(1.00, 0.00, -0.00, -1.00, 528.2, 5.6)">s</text><text xml:space="preserve" font-family="ArialMT,Arial" font-size="18.0" fill="#FEFFFE" transform="matrix(1.00, 0.00, -0.00, -1.00, 537.2, 5.6)">h</text><text xml:space="preserve" font-family="ArialMT,Arial" font-size="18.0" fill="#FEFFFE" transform="matrix(1.00, 0.00, -0.00, -1.00, 547.2, 5.6)">o</text><text xml:space="preserve" font-family="ArialMT,Arial" font-size="18.0" fill="#FEFFFE" transform="matrix(1.00, 0.00, -0.00, -1.00, 557.3, 5.6)">r</text><text xml:space="preserve" font-family="ArialMT,Arial" font-size="18.0" fill="#FEFFFE" transform="matrix(1.00, 0.00, -0.00, -1.00, 563.2, 5.6)">n</text><text xml:space="preserve" font-family="ArialMT,Arial" font-size="18.0" fill="#FEFFFE" transform="matrix(1.00, 0.00, -0.00, -1.00, 573.3, 5.6)">-</text><text xml:space="preserve" font-family="ArialMT,Arial" font-size="18.0" fill="#FEFFFE" transform="matrix(1.00, 0.00, -0.00, -1.00, 579.3, 5.6)">7</text><text xml:space="preserve" font-family="ArialMT,Arial" font-size="18.0" fill="#FEFFFE" transform="matrix(1.00, 0.00, -0.00, -1.00, 589.3, 5.6)">.</text><text xml:space="preserve" font-family="ArialMT,Arial" font-size="18.0" fill="#FEFFFE" transform="matrix(1.00, 0.00, -0.00, -1.00, 594.3, 5.6)">j</text><text xml:space="preserve" font-family="ArialMT,Arial" font-size="18.0" fill="#FEFFFE" transform="matrix(1.00, 0.00, -0.00, -1.00, 598.3, 5.6)">p</text><text xml:space="preserve" font-family="ArialMT,Arial" font-size="18.0" fill="#FEFFFE" transform="matrix(1.00, 0.00, -0.00, -1.00, 608.3, 5.6)">g</text><g><clipPath id="clip0x6000014bec60"><path d="M -0.2 2.0 L 618.2 2.0 L 618.2 5.4 L -0.2 5.4 Z M -0.2 2.0 "></path></clipPath><g clip-path="url(#clip0x6000014bec60)"><path d="M 146.8 22.5 L 764.2 22.5 " fill="none" stroke="#FEFFFE" stroke-width="1.32" transform="matrix(1.00, 0.00, 0.00, -1.00, -146.0, 26.2)"></path></g></g></g></svg>