<?xml version="1.0" encoding="UTF-8" standalone="no"?><svg xmlns="http://www.w3.org/2000/svg" xmlns:xlink="http://www.w3.org/1999/xlink" clip-rule="evenodd" stroke-miterlimit="10" viewBox="0 0 1920 1080"><desc>SVG generated by Keynote</desc><defs></defs><g transform="matrix(1.00, 0.00, -0.00, -1.00, 0.0, 1080.0)"><g><clipPath id="clip0x6080012b4880"><path d="M 0.0 1080.0 L 1920.0 1080.0 L 1920.0 0.0 L 0.0 0.0 Z M 0.0 1080.0 "></path></clipPath><g clip-path="url(#clip0x6080012b4880)"><image xlink:href="../../1E67C241-5BA9-413A-A8B1-797A3257E5D2/assets/5B04D095421B6D2ED3C410DADA94EAF4.jpeg" width="1920.00" height="1080.00" transform="matrix(1.00, 0.00, -0.00, -1.00, 2.5, 1080.0)"></image></g></g><image xlink:href="../../0BD9713D-688F-44EA-BA00-2F7633DCB3E6/assets/07B09105FEF66ECB2B814F9587635200.png" width="217.00" height="185.00" transform="matrix(1.00, 0.00, -0.00, -1.00, 1968.0, 1.0)"></image><text xml:space="preserve" font-family="Novecentowide-Normal,Novecento wide" font-size="112.0" fill="#FEFFFE" transform="matrix(1.00, 0.00, -0.00, -1.00, 408.6, 903.8)">W</text><text xml:space="preserve" font-family="Novecentowide-Normal,Novecento wide" font-size="112.0" fill="#FEFFFE" transform="matrix(1.00, 0.00, -0.00, -1.00, 516.6, 903.8)">h</text><text xml:space="preserve" font-family="Novecentowide-Normal,Novecento wide" font-size="112.0" fill="#FEFFFE" transform="matrix(1.00, 0.00, -0.00, -1.00, 597.5, 903.8)">a</text><text xml:space="preserve" font-family="Novecentowide-Normal,Novecento wide" font-size="112.0" fill="#FEFFFE" transform="matrix(1.00, 0.00, -0.00, -1.00, 668.1, 903.8)">t</text><text xml:space="preserve" font-family="Novecentowide-Normal,Novecento wide" font-size="112.0" fill="#FEFFFE" transform="matrix(1.00, 0.00, -0.00, -1.00, 734.7, 903.8)"> </text><text xml:space="preserve" font-family="Novecentowide-Normal,Novecento wide" font-size="112.0" fill="#FEFFFE" transform="matrix(1.00, 0.00, -0.00, -1.00, 762.7, 903.8)">i</text><text xml:space="preserve" font-family="Novecentowide-Normal,Novecento wide" font-size="112.0" fill="#FEFFFE" transform="matrix(1.00, 0.00, -0.00, -1.00, 792.7, 903.8)">s</text><text xml:space="preserve" font-family="Novecentowide-Normal,Novecento wide" font-size="112.0" fill="#FEFFFE" transform="matrix(1.00, 0.00, -0.00, -1.00, 859.4, 903.8)"> </text><text xml:space="preserve" font-family="Novecentowide-Normal,Novecento wide" font-size="112.0" fill="#FEFFFE" transform="matrix(1.00, 0.00, -0.00, -1.00, 887.4, 903.8)">N</text><text xml:space="preserve" font-family="Novecentowide-Normal,Novecento wide" font-size="112.0" fill="#FEFFFE" transform="matrix(1.00, 0.00, -0.00, -1.00, 971.3, 903.8)">a</text><text xml:space="preserve" font-family="Novecentowide-Normal,Novecento wide" font-size="112.0" fill="#FEFFFE" transform="matrix(1.00, 0.00, -0.00, -1.00, 1049.4, 903.8)">s</text><text xml:space="preserve" font-family="Novecentowide-Normal,Novecento wide" font-size="112.0" fill="#FEFFFE" transform="matrix(1.00, 0.00, -0.00, -1.00, 1116.1, 903.8)">h</text><text xml:space="preserve" font-family="Novecentowide-Normal,Novecento wide" font-size="112.0" fill="#FEFFFE" transform="matrix(1.00, 0.00, -0.00, -1.00, 1197.6, 903.8)">o</text><text xml:space="preserve" font-family="Novecentowide-Normal,Novecento wide" font-size="112.0" fill="#FEFFFE" transform="matrix(1.00, 0.00, -0.00, -1.00, 1287.7, 903.8)">r</text><text xml:space="preserve" font-family="Novecentowide-Normal,Novecento wide" font-size="112.0" fill="#FEFFFE" transform="matrix(1.00, 0.00, -0.00, -1.00, 1359.1, 903.8)">n</text><text xml:space="preserve" font-family="Novecentowide-Normal,Novecento wide" font-size="112.0" fill="#FEFFFE" transform="matrix(1.00, 0.00, -0.00, -1.00, 1444.2, 903.8)">?</text></g></svg>