<?xml version="1.0" encoding="UTF-8" standalone="no"?><svg xmlns="http://www.w3.org/2000/svg" xmlns:xlink="http://www.w3.org/1999/xlink" clip-rule="evenodd" stroke-miterlimit="10" viewBox="0 0 630 84"><desc>SVG generated by Keynote</desc><defs></defs><g transform="matrix(1.00, 0.00, -0.00, -1.00, 0.0, 84.0)"><text xml:space="preserve" font-family="Novecentowide-Normal,Novecento wide" font-size="112.0" fill="#000000" transform="matrix(1.00, 0.00, -0.00, -1.00, -9.1, 2.8)">P</text><text xml:space="preserve" font-family="Novecentowide-Normal,Novecento wide" font-size="112.0" fill="#000000" transform="matrix(1.00, 0.00, -0.00, -1.00, 59.0, 2.8)">o</text><text xml:space="preserve" font-family="Novecentowide-Normal,Novecento wide" font-size="112.0" fill="#000000" transform="matrix(1.00, 0.00, -0.00, -1.00, 149.1, 2.8)">l</text><text xml:space="preserve" font-family="Novecentowide-Normal,Novecento wide" font-size="112.0" fill="#000000" transform="matrix(1.00, 0.00, -0.00, -1.00, 198.8, 2.8)">y</text><text xml:space="preserve" font-family="Novecentowide-Normal,Novecento wide" font-size="112.0" fill="#000000" transform="matrix(1.00, 0.00, -0.00, -1.00, 264.4, 2.8)">g</text><text xml:space="preserve" font-family="Novecentowide-Normal,Novecento wide" font-size="112.0" fill="#000000" transform="matrix(1.00, 0.00, -0.00, -1.00, 353.4, 2.8)">l</text><text xml:space="preserve" font-family="Novecentowide-Normal,Novecento wide" font-size="112.0" fill="#000000" transform="matrix(1.00, 0.00, -0.00, -1.00, 413.7, 2.8)">o</text><text xml:space="preserve" font-family="Novecentowide-Normal,Novecento wide" font-size="112.0" fill="#000000" transform="matrix(1.00, 0.00, -0.00, -1.00, 501.7, 2.8)">t</text><text xml:space="preserve" font-family="Novecentowide-Normal,Novecento wide" font-size="112.0" fill="#000000" transform="matrix(1.00, 0.00, -0.00, -1.00, 568.3, 2.8)">?</text></g></svg>